<?xml version="1.0" encoding="UTF-8"?>
<svg id="Layer_1" data-name="Layer 1" xmlns="http://www.w3.org/2000/svg" viewBox="0 0 70 70">
  <defs>
    <style>
      .cls-1 {
        fill: #0f1027;
      }
    </style>
  </defs>
  <path class="cls-1" d="M26.05,35.48c-.33,0-.69.04-1.04.05-.66.04-1.34.08-2,.07-2.1-.02-3.86-.02-5.27-1.73-1.03-1.18-1.69-3.01-2-4.52.63.57,1.62,1.05,2.66,1.58,1.44.64,3.1.85,4.67.87.71,0,1.43-.02,2.13-.09.13.05.28.06.43.06.17,0,.33-.01.5,0,.3-.13.38-.4.38-.7,0-.23-.19-.69-.47-.69-.33,0-.69.04-1.04.05-.66.04-1.34.08-2,.07-2.1-.02-5.14-.41-6.55-2.12-.8-.95-.79-4.56-1.58-2.42l-.16.37c-.04.15-.06.29-.06.41-.14.79.03,2.55.16,3.78.12,1.1,1.12,2.97,1.17,3.06.06.15.21.32.3.45.53.77,1.23,1.6,2.11,2,1.44.64,3.1.85,4.67.87.71,0,1.43-.02,2.13-.09.13.05.28.06.43.06.17,0,.33-.01.5,0,.3-.13.38-.4.38-.7,0-.23-.19-.69-.47-.69Z"/>
  <path class="cls-1" d="M44.38,35.48c.33,0,.69.04,1.04.05.66.04,1.34.08,2,.07,2.1-.02,3.86-.02,5.27-1.73,1.03-1.18,1.69-3.01,2-4.52-.63.57-1.62,1.05-2.66,1.58-1.44.64-3.1.85-4.67.87-.71,0-1.43-.02-2.13-.09-.13.05-.28.06-.43.06-.17,0-.33-.01-.5,0-.3-.13-.38-.4-.38-.7,0-.23.19-.69.47-.69.33,0,.69.04,1.04.05.66.04,1.34.08,2,.07,2.1-.02,5.14-.41,6.55-2.12.8-.95.79-4.56,1.58-2.42l.16.37c.04.15.06.29.06.41.14.79-.03,2.55-.16,3.78-.12,1.1-1.12,2.97-1.17,3.06-.06.15-.21.32-.3.45-.53.77-1.23,1.6-2.11,2-1.44.64-3.1.85-4.67.87-.71,0-1.43-.02-2.13-.09-.13.05-.28.06-.43.06-.17,0-.33-.01-.5,0-.3-.13-.38-.4-.38-.7,0-.23.19-.69.47-.69Z"/>
</svg>