<?xml version="1.0" encoding="UTF-8"?>
<svg id="Layer_1" data-name="Layer 1" xmlns="http://www.w3.org/2000/svg" viewBox="0 0 525.09 21.26">
  <defs>
    <style>
      .cls-1 {
        fill: #0f1027;
      }
    </style>
  </defs>
  <path class="cls-1" d="M517.29,5.95c-2.42-.63-4.84-.84-7.26-.84l-3.68.11c-1.89,0-3.79-.42-5.57-.42-2.52,0-5.15.32-7.68.42-5.36.31-10.84.42-16.2.42-8.41,0-17.25,0-25.66-.42-1.26-.11-2.42-.21-3.68-.21-4.94,0-9.78.95-14.73.95-1.79,0-6.31,0-7.99-.31-2.38-1.66-55.53-.54-73.2-.27-2.41-.09-5.6-.31-8.09-.09-17.32.1-33.95.16-51.15-.17-.76-.06-8.98-.18-9.61-.2-.6-.01.18,0-.6-.01-.38-.01,0,0-.55-.02-.46.01-.84,0-3.23.15-5.34.09-5.58.37-10.84.37-7.99,0-14.45-.75-22.34-.75-1.37,0-2.63.21-3.89.21-3.15,0-3.73.58-6.88.58-.25,0-.51.03-.77.06-.15,0-.33-.03-.47-.04-.43-.11-.89-.18-1.39-.17-3.43.12-7,.44-10.48.47-6.49.27-12.98.31-19.44.2-5.32-.02-10.61-.19-15.94-.44-2.56-.04-5.16-.29-7.76-.29-.02-.02-.03-.05-.05-.07-.59,0-1.21-.01-1.8-.02-1.03-.08-2.61-.18-3.45-.04-12.52-.14-25.88-.1-37.99.35-6.6.28-13.35.96-19.92,1-3.76.07-12.41-1.49-16.21-.81-2.84,0-10.83-.26-13.67-.26h-.63c-13.04-.32-26.08-.74-39.13-.74s-24.93.11-37.44.32c-1.47.95-2.95,2.31-2.95,4.21,0,2.21.84,3.58,2.21,5.15,2.42.63,4.84.84,7.26.84l3.68-.11c1.89,0,3.79.42,5.57.42,2.52,0,5.15-.32,7.68-.42,5.36-.31,10.84-.42,16.2-.42,8.41,0,17.25,0,25.66.42,1.26.11,2.42.21,3.68.21,4.94,0,9.78-.95,14.73-.95,1.79,0,6.31,0,7.99.31,2.38,1.66,55.53.54,73.2.27,2.41.09,5.6.31,8.09.09,17.32-.1,33.95-.16,51.15.17.76.06,8.98.18,9.61.2.6.01-.18,0,.6.01.38.01,0,0,.55.02.46-.01.84,0,3.23-.15,5.34-.09,5.58-.37,10.84-.37,7.99,0,14.45.75,22.34.75,1.37,0,2.63-.21,3.89-.21,3.15,0,3.73-.58,6.88-.58.25,0,.51-.03.77-.06.15,0,.33.03.47.04.43.11.89.18,1.39.17,3.43-.12,7-.44,10.48-.47,6.49-.27,12.98-.31,19.44-.2,5.32.02,10.61.19,15.94.44,2.56.04,5.16.29,7.76.29.02.02.03.05.05.07.59,0,1.21.01,1.8.02,1.03.08,2.61.18,3.45.04,12.52.14,25.88.1,37.99-.35,6.6-.28,13.35-.96,19.92-1,3.76-.07,12.41,1.49,16.21.81,2.84,0,10.83.26,13.67.26h.63c13.04.32,26.08.74,39.13.74s24.93-.11,37.44-.32c1.47-.95,2.95-2.31,2.95-4.21,0-2.21-.84-3.58-2.21-5.15Z"/>
</svg>