<?xml version="1.0" encoding="UTF-8"?>
<svg id="Layer_1" data-name="Layer 1" xmlns="http://www.w3.org/2000/svg" viewBox="0 0 70 70">
  <defs>
    <style>
      .cls-1 {
        fill: #0f1027;
      }
    </style>
  </defs>
  <path class="cls-1" d="M28.58,48.87c-.39-.37-.7-.63-.7-1.23,0,0,0-.01,0-.02,0-.44.51-.72.9-.51.29.15.44.71.73.98.27.28.96.66,1.19.8,1.3.74,2.73,1.17,4.24,1.17,1.67,0,3.37-.57,4.73-1.5.58-.42,1.03-1.04,1.6-1.55.31-.28.54-.25.7-.05s.19.49.1.74c-.41,1.25-1.77,2.22-2.89,2.73-1.27.6-2.69.86-4.11.86-2.34,0-4.78-.77-6.49-2.44Z"/>
</svg>