<?xml version="1.0" encoding="UTF-8"?>
<svg id="Layer_1" data-name="Layer 1" xmlns="http://www.w3.org/2000/svg" viewBox="0 0 70 70">
  <path d="M14.95,31.45c1.73-.97,3.19-2.12,4.82-3.23.49-.35,1.02-.57,1.5-.88.84-.53,1.46-1.42,2.21-2.08.62-.53,1.42-.93,2.26-.93,1.11,0,2.21.93,2.21,2.08,0,.13,0,.31-.04.44-1.84,2.19-4.46,3.43-6.73,5.1,0,0,.01,0,.02,0,.59.06,3.37-.17,5.55.14.45.06.9.11,1.35.09,2.18-.09,8.77-.29,9.3-.23.09,0,.18.02.27.03.15-.01.3-.03.45-.03,2.76-.12,5.3-.4,7.9-.15,2.33.23,4.93.97,6.84,2.32,2.16,1.5,3.17,4.8,2.93,7.31-.14,1.41-.66,4.43-2.64,4.23-2.47-.24.2-4.61-1.3-6.98-.97-1.47-2.67-3.05-4.31-3.05h-11.22c-.06,0-.11-.02-.17-.02-5.77.03-13,.06-15.27-.18,2.12,2.22,4.52,4.14,6.85,6.11.13.27.18.57.18.89,0,1.19-.93,1.81-2.04,1.81-.18,0-.35,0-.49-.05-3.94-3.19-7.48-6.81-11.06-10.4-.09-.31-.18-.62-.18-.97,0-.66.22-1.06.8-1.37Z"/>
</svg>