<?xml version="1.0" encoding="UTF-8"?>
<svg id="Layer_1" data-name="Layer 1" xmlns="http://www.w3.org/2000/svg" viewBox="0 0 70 70">
  <defs>
    <style>
      .cls-1 {
        fill: #0f1027;
      }
    </style>
  </defs>
  <path class="cls-1" d="M28.55,22.15c.45-.57,1.11-.35,2.36-.35.28,0,.81.12,1.64.66,4.18,2.99,6.99,6.09,10.68,9.71,1.25,1.18,3.69,3.2,4.59,4.38.28.21.28.7.28,1.04h0c0,1.05-.41,2.05-1.16,2.76-1.97,1.88-4.87,3.05-7.26,3.85-2.92.98-7.29,4.76-10.29,4.76-.16,0-.31,0-.47-.03-1.08-.12-1.86-1.1-1.86-2.19v-.06c0-.21.2-.57.34-.78.1-.12.23-.26.36-.4.46-.46,1.01-.82,1.61-1.06,3.6-1.46,6.19-2.91,9.3-4.39.83-.35,5.61-2.1,3.02-3.92-.26-.18-2.06-1.71-2.13-1.85-1.81-1.81-2.81-2.18-4.62-3.92-.84-.84-1.63-1.27-2.39-2.11-.28-.35-1.82-1.54-2.16-1.82-1.18-1.11-2.16-1.02-2.16-2.83,0-.21.25-1.33.32-1.47Z"/>
</svg>