<?xml version="1.0" encoding="UTF-8"?>
<svg id="Layer_1" data-name="Layer 1" xmlns="http://www.w3.org/2000/svg" viewBox="0 0 70 70">
  <defs>
    <style>
      .cls-1 {
        fill: #0f1027;
      }

      .cls-2 {
        fill: #ffa631;
      }
    </style>
  </defs>
  <path class="cls-2" d="M51.03,46.18c1.66,12.77-2.57,12.04-15.87,12.54-16.37.62-16.12-1.52-14.8-14.31,1.62-15.68,4.58-15.68,14.64-15.68,15.57,0,14.73,7.47,16.03,17.44Z"/>
  <path class="cls-1" d="M58.74,20.02c-8.61-10.6-17.17-11.26-25.33-11.26s-14.93,3.98-19.95,10.23c-3.51,4.37-4.64,12.36-4.64,17.86,0,12.37,6.27,21.73,18.82,24.11.63.13,1.26.25,1.88.25,8.28,0,16.91.83,23.53-4.84,5.14-4.41,6.08-9.37,7.79-15.12,1.38-4.64.54-17.61-2.1-21.23ZM30.92,58.31c-3-.16-6.7-1.19-10.01-3.28-.34-.71-.68-1.45-.68-2.29-.05-2.06.3-6.24.37-8.31.07-2.99,1.11-5.43,1.48-8.4.24-2.22,4.53-6.46,6.56-6.74,1.01-.14,6.09-1.75,14.86,1.29,2.58.9,5.16,2.88,5.54,6.28,1.1,9.84.74,9.34.87,11.03.25,3.25.25,3.53.01,6.64-3.96,2.86-9.89,4.25-19,3.77ZM57.06,42.17c-.97,4.12-2.39,7.59-4.79,10.26-.16-4.94-.51-9.98-.96-14.87-.44-4.79-3.88-9.37-12.16-10.3-.92-.11-5.25-.95-11.01.24-2.25.46-6.33,3.49-7.15,5.37-2.48,2.33-2.78,14.84-2.7,20.21-3.86-3.43-6.62-8.68-6.07-16.16.36-4.81-.94-8.92,6.41-18.19,1.93-2.43,7.12-6.67,14.67-6.67,10.34,0,15.42,2.8,18.29,4.9,10.52,7.72,6.02,22.83,5.47,25.2Z"/>
</svg>