<?xml version="1.0" encoding="UTF-8"?>
<svg id="Layer_1" data-name="Layer 1" xmlns="http://www.w3.org/2000/svg" viewBox="0 0 70 70">
  <defs>
    <style>
      .cls-1 {
        fill: #0f1027;
      }
    </style>
  </defs>
  <path class="cls-1" d="M25.21,30.63c-.19-.08-.27-.09-.43-.15-.07-.03-.22-.11-.46-.22-.67-.23-.2-.06-.67-.23-.57-.21-.65-.38-1.12-.74-.62-.49-.91-.78-1.52-1.74-.35-.55-.46-1.23-.31-1.87.1-.41.17-.75-.05-.83-.24-.08-.66.33-.91.48-.05.04-.1.08-.14.12-.43.32-.72.91-.86,1.39-.37,1.13-.28,2.66.1,3.76.08.24.17.45.26.66.18.4.39.79.62,1.16.51.81,2.02,2.6,2.83,2.32.24-.08.35-.47.3-.75-.03-.15-1.07-1.23-1.19-1.41-.11-.16-.17-.19-.46-.59-.46-.58-.33-.42-.55-.7-.37-.48-.43-.6-.62-1.15-.27-.77-.36-1.98-.21-2.89.33,1.11,1.2,2.28,2.08,2.98.45.36,1.15.94,1.7,1.04.93.18,2.6.93,3.19.17.16-.2-1.34-.69-1.58-.79Z"/>
  <path class="cls-1" d="M42.88,30.01c.2-.05.28-.05.45-.08.08-.01.24-.08.49-.15.69-.13.2-.03.69-.13.59-.12.7-.28,1.21-.57.68-.39,1.02-.64,1.76-1.49.43-.5.64-1.15.59-1.8-.04-.42-.06-.77.18-.81.25-.05.61.42.83.61.05.05.09.09.12.14.38.38.58,1.01.65,1.5.2,1.17-.12,2.68-.66,3.71-.12.22-.23.42-.35.62-.23.37-.5.72-.78,1.05-.62.73-2.05,2.07-2.81,1.67-.23-.12.25-1.08.65-1.47.11-.11.07-.17.21-.33.13-.15.19-.16.54-.52.54-.5.39-.37.65-.61.44-.42.51-.53.79-1.05.38-.72.65-1.91.64-2.83-.5,1.05-1.52,2.08-2.5,2.63-.5.28-1.27.76-1.84.78-.95.04-2.43.67-2.91-.16-.13-.22,1.15-.63,1.4-.69Z"/>
</svg>