<?xml version="1.0" encoding="UTF-8"?>
<svg id="Layer_1" data-name="Layer 1" xmlns="http://www.w3.org/2000/svg" viewBox="0 0 70 70">
  <defs>
    <style>
      .cls-1 {
        fill: #0f1027;
      }
    </style>
  </defs>
  <path class="cls-1" d="M45.56,21.19c.93,0,2.35.4,2.35,1.51,0,1.69-8.89,9.72-9.91,11.5.09.75.98,1.29,1.42,1.82.98,1.2,8.04,8.93,8.75,10.31,0,1.06-1.29,2.48-2.35,2.48-.62,0-1.15-.4-1.55-.84l-.93-1.29c-.8-1.02-7.51-8.62-8.22-9.64-1.86.09-7.72,10.22-9.14,11.32-.44.36-1.02.44-1.55.44-1.73,0-1.69-.67-1.69-2.22s9.37-11.33,9.37-12.48c0-.71-10.27-10.3-10.27-11.32,0-.35.18-.62.31-.89.71-.18,1.33-.71,2.09-.71.18,0,.44.04.62.13.98.49,8.9,9.24,9.96,10.17,1.6-.22,9.69-10.3,10.76-10.3Z"/>
</svg>