<?xml version="1.0" encoding="UTF-8"?>
<svg id="Layer_1" data-name="Layer 1" xmlns="http://www.w3.org/2000/svg" viewBox="0 0 70 70">
  <defs>
    <style>
      .cls-1 {
        fill: #0f1027;
      }
    </style>
  </defs>
  <path class="cls-1" d="M41.52,19.09c0-.06,0-.11,0-.15,0-.48-.03-.92-.34-1.28-.24-.35-.67-.51-1.63-.69-.12-.02-.23-.03-.35-.03-1.68,0-2.31.84-2.59,2.38-.04.24-.09.84-.17,1.04-.05.56-.04.26-.04.75,0,.4,0,.35-.02.53-.02.35-.03.62-.03,1.03,0,.3.03.69.06,1.09.17,1.78.17,1.99.17,3.76,0,.35-.03.69-.03,1.04,0,.29.42.44.66.46.19-.09.46-.06.55-.3.15-.31.18-.93.18-1.29,0-.78-.09-.76-.09-1.54,0-.26-.04-.89-.04-1.17,0-.5.02-.81,0-1.3-.04-.7-.01-.11-.05-.95-.02-.37-.01-.91-.01-1.15,0-.36,0-.43.01-.48.04-.17.01-.27.02-.53,0-.17.04-.68.04-.86,0-.69.2-.9.86-1.18.09-.04.2-.04.3-.08,1.32-.41,1.43.24,1.43.91-.53.15-.96.55-.9,1.57.02.36.5.77.78.83.18.03.63.06.83.06.55,0,.65.02,1.01-.37.18-.19.17-.47.17-.75,0-.63-.27-1.15-.8-1.34Z"/>
  <path class="cls-1" d="M25.76,19.09c0-.06,0-.11,0-.15,0-.48.03-.92.34-1.28.24-.35.67-.51,1.63-.69.12-.02.23-.03.35-.03,1.68,0,2.31.84,2.59,2.38.04.24.09.84.17,1.04.05.56.04.26.04.75,0,.4,0,.35.02.53.02.35.03.62.03,1.03,0,.3-.03.69-.06,1.09-.17,1.78-.17,1.99-.17,3.76,0,.35.03.69.03,1.04,0,.29-.42.44-.66.46-.19-.09-.46-.06-.55-.3-.15-.31-.18-.93-.18-1.29,0-.78.09-.76.09-1.54,0-.26.04-.89.04-1.17,0-.5-.02-.81,0-1.3.04-.7.01-.11.05-.95.02-.37.01-.91.01-1.15,0-.36,0-.43-.01-.48-.04-.17-.01-.27-.02-.53,0-.17-.04-.68-.04-.86,0-.69-.2-.9-.86-1.18-.09-.04-.2-.04-.3-.08-1.32-.41-1.43.24-1.43.91.53.15.96.55.9,1.57-.02.36-.5.77-.78.83-.18.03-.63.06-.83.06-.55,0-.65.02-1.01-.37-.18-.19-.17-.47-.17-.75,0-.63.27-1.15.8-1.34Z"/>
</svg>