<?xml version="1.0" encoding="UTF-8"?>
<svg id="Layer_1" data-name="Layer 1" xmlns="http://www.w3.org/2000/svg" viewBox="0 0 70 70">
  <defs>
    <style>
      .cls-1 {
        fill: #0f1027;
      }
    </style>
  </defs>
  <path class="cls-1" d="M46.72,24.39c0,.15-.04.27-.15.38-2.78,3.28-10.39,16.1-12.34,19.99-.27.5-.95,1.87-1.37,2.13-.27.15-.92.46-1.22.46-.23,0-.46-.11-.65-.23-.65-.42-1.41-2.63-1.68-3.39-.46-1.18-3.35-7.93-3.35-8.5s.42-1.1.92-1.33c.27-.04.53-.04.8-.04.61,0,.99.15,1.37.65.46.57.61,1.52.91,2.25.76,1.6,1.3,3.32,2.13,4.92,1.26-1.94,6.96-12.52,8.3-14.39.95-1.41,1.98-2.93,3.09-4.19.3-.31.57-.46.99-.46.84,0,1.72.65,2.17,1.3.04.15.08.3.08.46Z"/>
</svg>