<?xml version="1.0" encoding="UTF-8"?>
<svg id="Layer_1" data-name="Layer 1" xmlns="http://www.w3.org/2000/svg" viewBox="0 0 70 70">
  <defs>
    <style>
      .cls-1 {
        fill: #0f1027;
      }

      .cls-2 {
        fill: #ffa631;
      }
    </style>
  </defs>
  <path class="cls-2" d="M52.5,47.84c1.84,12.03-7.47,12.67-17.3,12.67s-19.8-3.78-17.2-13.25c5.65-20.57,7.23-15.11,16.37-18.72s16.55,9.05,18.12,19.3Z"/>
  <path class="cls-1" d="M58.58,20.25c-8.61-10.6-17.17-11.26-25.33-11.26s-14.93,3.98-19.95,10.23c-3.51,4.37-4.64,12.36-4.64,17.86,0,12.37,6.27,21.73,18.82,24.11.63.13,1.26.25,1.88.25,8.28,0,16.91.83,23.53-4.84,5.14-4.41,6.08-9.37,7.79-15.12,1.38-4.64.54-17.61-2.1-21.23ZM20.14,43.52c1.97-6.97,5.74-14.3,16.95-13.73,5.9-.03,8.47,1.26,9.83,3.84,1.44,2.74,3.59,8.88,3.59,11.92,0,1.51.31,6.43-1.64,9.83-3.95,2.46-9.66,3.61-18.11,3.18-3.2-.17-7.18-1.32-10.65-3.7-.93-2.65-.64-8.97.03-11.34ZM56.9,42.41c-.91,3.86-2.21,7.15-4.35,9.74.24-1.41.34-3.16.34-5.36,0-4.61-1.48-9.87-3.62-13.99-2.3-4.28-6.99-5.93-11.6-5.93-4.2,0-10.38,1.64-13.59,4.35-3.62,2.96-6.05,9.53-6.4,14.04-.24,3.06-.63,5.2-.54,7.08-3.32-3.42-5.57-8.38-5.07-15.19.36-4.81-.94-8.92,6.41-18.19,1.93-2.43,7.12-6.67,14.67-6.67,10.34,0,15.42,2.79,18.29,4.9,10.52,7.72,6.02,22.83,5.47,25.2Z"/>
</svg>