<?xml version="1.0" encoding="UTF-8"?>
<svg id="Layer_1" data-name="Layer 1" xmlns="http://www.w3.org/2000/svg" viewBox="0 0 59.24 25.66">
  <defs>
    <style>
      .cls-1 {
        fill: #0f1027;
      }
    </style>
  </defs>
  <path class="cls-1" d="M13.03.62l-2.86-.16C7.6.24,4.88.24,1.92,1c-.77.2-1.32.9-1.28,1.7.08,1.61.32,2.58.3,2.79-.1,1.79.09,2.87.08,4.67-.05,1.43-.1.74-.1,2.67,0,3.75.08,2.4.22,10.63.02,1.12.99,1.98,2.11,1.86.47-.05,1.01-.14,1.67-.1,3.04.17,6.57.1,9.9-.16,3.06-.19-1.93.21,4.65-.4.11-.02,1.09.01,1.43,0,.46.06,1.12.07,1.33.14.55.02.27.04.8.04l.8-.02c.41,0,.82.09,1.21.09.55,0,1.12-.07,1.67-.09,1.17-.07,2.36-.09,3.52-.09,1.83,0,3.75,0,5.58.09.27.02.53.05.8.05,1.07,0,2.13-.21,3.2-.21.39,0,.59,0,.95.06.29-.02.79,0,1.1-.05.71.04.52-.05,2.07-.05.49,0,2.15.18,2.83,0,.11-.03.22-.06.33-.06,3.93-.1,8.53.98,11.57-.51.45-.9.04-1.83.04-2.81,0-.18-.16-1.12-.16-1.39-.07-1.11.03-1.74.05-2.92.01-.7-.04-1.1-.09-1.3-.04-.18-.05-.36-.05-.54,0-1.81.01-1.35-.02-2.32-.09-.98-.1-1.31-.1-2.38,0-1.52-.04-2.64-.04-4.25,0-1.75.49-3.14.19-4.55-.04-.21-.21-.38-.41-.43-1.27-.35-2.11-.26-2.93-.26-4.1,0-11.77.1-15.99.52-1.44-.21-2.59-.23-3.05-.23-.62,0-1.3-.16-1.92-.16h-.14c-2.84-.07-5.67-.16-8.51-.16-2.25,0-4.48.02-6.72.05-.5,0-1.33-.02-1.83-.07-1.61-.14-2.04-.18-2.99-.23M15.57,1.6c1.32.09,2.11.35,2.93.43.56.11.86.06,1.4.12l.77-.03c.41,0,.88.04,1.27.04.55,0,1.08.09,1.63.07,1.17-.07,2.36-.09,3.52-.09,1.83,0,3.75,0,5.58.09.27.02.53.05.8.05,1.07,0,1.19-.06,2.27-.06.39,0,1.06-.09,1.43-.02.02-.01.78.08.8.07,1.36,0,2.72-.04,4.04.04,1.51-.03,6.14.08,7.89-.29.96-.2,6.42-.42,7.14.2.27,3.04.06,7.74.16,10.47,0,0,0,2.78.12,3.46.21,1.32.24,5.19.36,6.12.26,2.05-10.5.33-15.32,1.37-.05,0-1.17-.04-1.22-.04-.62,0-1.46.13-2.08.13h-.14c-2.84-.07-5.67-.16-8.51-.16-2.65,0-1.2-.1-3.86-.06-.8-.17-3.95-.17-4.1-.21-.86-.25-2.1.36-3.21.24-2.13,0-3.09.2-4.52.12-2.83-.16-.98.27-3.8.15-.55-.02-2.71-.14-5.56-.01-.46.02-2.98.05-2.99-.4l-.16-3.09c-.3-2.49-.08-1.31-.05-4.04.07-5.14.12-1.19-.13-9.98.19-1.32-.85-3.82-.38-4.24,6.44-1.69,3.12-.41,9.05-.61"/>
</svg>