<?xml version="1.0" encoding="UTF-8"?>
<svg id="Layer_1" data-name="Layer 1" xmlns="http://www.w3.org/2000/svg" viewBox="0 0 70 70">
  <defs>
    <style>
      .cls-1 {
        fill: #0f1027;
      }
    </style>
  </defs>
  <path class="cls-1" d="M21.38,25.56c1.79.26,1.55,1.22,2.48,2.55.23.38,1.18,2.08,1.48,2.4.72.88,1.03,1.73,1.74,2.67,1.46,2.04,1.68,3.08,3.21,5.14.13.09,1.37,2.1,1.52,2.38,1.42,2.82,3.85-1.65,4.32-2.42,1.92-2.86,3.73-7.41,5.7-10.76.33-.56.77-1.05,1.29-1.44.15-.12.31-.22.44-.3.23-.11.62-.25.82-.22h.06c1.08.16,1.94,1.08,1.9,2.17,0,.15-.02.31-.04.46-.43,2.96-4.82,8.94-6.21,11.69-1.13,2.25-2.71,4.95-4.86,6.62-.82.64-1.86.9-2.89.75h-.01c-.34-.05-.83-.12-.99-.43-1.04-1.07-2.68-3.77-3.67-5.18-3.05-4.17-5.71-7.41-8.06-11.98-.41-.89-.45-1.44-.41-1.71.18-1.24.06-1.93.69-2.29.15-.05,1.3-.13,1.5-.1Z"/>
</svg>
