<?xml version="1.0" encoding="UTF-8"?>
<svg id="Layer_1" data-name="Layer 1" xmlns="http://www.w3.org/2000/svg" viewBox="0 0 52.67 70">
  <defs>
    <style>
      .cls-1 {
        fill: #616372;
      }
    </style>
  </defs>
  <path class="cls-1" d="M50.27,62.9c-5.61-6.93-14.72-20.5-21.02-26.81-.12-.11-.26-.25-.41-.4,1.67-2.31,3.38-4.88,4.94-7.2.62-.86,2.18-3.54,2.73-4.4.93-1.48,9.2-11.6,10.29-12.99.95-1.21,2.27-2.86,2.27-4.34,0-.81-.23-2.29-1.38-3.09-.02-.02-.02-.03-.04-.05l-.89-.49c-2.6-1.56-13.15-1.09-20.86-1.09s-13.2-.5-20.57.24c-1.46.15-3.33,1.89-3.33,3.74,0,.04,0,.06,0,.09,0,.06,0,.12.01.18,0,.08.01.15.03.21.06.35.21.7.5,1.16,5.61,6.93,11.74,20.5,18.04,26.81.12.11.26.25.41.4-1.67,2.31-3.38,4.88-4.94,7.2-.62.86-2.18,3.54-2.73,4.4-.93,1.48-7.96,11.6-9.05,12.99-.56.72-1.23,1.59-1.7,2.49,0,0,0,0,0,0,0,0,0,0,0,.01-.32.61-.57,1.24-.57,1.84,0,.95.32,2.87,2.11,3.45l.04.02c2.6,1.56,14.89,1.09,22.61,1.09s13.2.5,20.57-.24c.92-.09,1.99-.81,2.67-1.79.47-.48.71-1.03.79-1.47.12-.68.02-1.16-.5-1.98ZM10.4,8.24c.91.06,1.81.2,2.67.2,1.49,0,3.05-.19,4.54-.25,3.17-.19,3.43-.25,6.6-.25,4.98,0,11.44,0,16.42.25,0,0,.01,0,.02,0-3.98,6.72-11.49,18.36-15.32,22.26-4.1-3.4-10.44-15.2-14.94-22.21ZM39.48,62.19c-1.49,0-2.96-.04-4.46.02-3.17.19-6.41.25-9.58.25-4.92,0-10.08,0-15.01-.24,3.76-6.74,10.24-18.24,14.05-22.11,4.08,3.39,12.31,15.07,17.56,22.1-.87,0-1.75-.01-2.55-.01Z"/>
  <path class="cls-1" d="M36.99,56.82c.51.69,3.35,4.22,2.85,4.42-.35.14-5.82.25-7.29.25h-2.61c-3.28,0-6.98-.12-10.25.08-.7.03-2.01,0-2.67,0-.7,0-1.68.1-2.76.06-.54.08-2.16.05-2.16-.31s1.11-2.27,1.54-3.03c1.66-2.65,2.3-4.5,3.83-5.56,1.71-1.18,6.14-1.54,8.92-1.47,7.92.19,7.09.19,10.59,5.56Z"/>
</svg>