<?xml version="1.0" encoding="UTF-8"?>
<svg id="Layer_1" data-name="Layer 1" xmlns="http://www.w3.org/2000/svg" viewBox="0 0 70 70">
  <defs>
    <style>
      .cls-1 {
        fill: #0f1027;
      }

      .cls-2 {
        fill: #fff;
      }
    </style>
  </defs>
  <path class="cls-2" d="M30.21,49.95h0s0,0,0,0c.01.01.03.02.04.03.03.01.05.01.08.02l.97.34s.02.02.03.02c.04.01.07.02.11.03.08-.01.17-.05.22-.12.15-.59.23-1.2.35-1.8.02-.09.03-.21.02-.31,0-.09.01-.23-.02-.31-.02-.07-.19.06-.3.18-.17.19-.31.4-.48.58-.23.24-.46.48-.71.71-.13.12-.26.23-.38.35,0,0-.02.03-.02.04-.03.08,0,.18.06.23Z"/>
  <path class="cls-2" d="M28.28,48.42h0s0,0,0,0c.01.01.02.03.03.04.02.02.05.03.08.04l.83.61s.02.02.03.03c.03.02.06.04.09.06.08,0,.18,0,.25-.05.32-.52.58-1.08.86-1.61.04-.08.09-.19.11-.3.03-.09.08-.21.07-.31,0-.07-.2,0-.34.08-.22.13-.41.29-.63.41-.29.16-.59.33-.88.48-.16.08-.32.15-.47.22,0,0-.03.02-.03.03-.05.07-.05.17,0,.24Z"/>
  <path class="cls-2" d="M32.95,51.04h0s0,0,0,0c.02,0,.03,0,.05,0,.03,0,.06-.01.08-.03l1.02-.18s.03,0,.04,0c.04,0,.07-.01.11-.03.06-.05.13-.13.14-.21-.16-.59-.38-1.16-.57-1.74-.03-.09-.08-.19-.14-.28-.05-.08-.1-.2-.17-.26-.05-.05-.14.14-.17.3-.05.25-.22.6-.28.84-.08.33-.19.62-.29.94-.05.16.05.26,0,.43,0,0,0,.03,0,.04.01.09.09.16.17.17Z"/>
  <path class="cls-2" d="M36.81,50.06h0s0,0,0,0c-.01.01-.03.02-.04.03-.03.01-.05.01-.08.02l-.97.34s-.02.02-.03.02c-.04.01-.07.02-.11.03-.08-.01-.17-.05-.22-.12-.15-.59-.23-1.2-.35-1.8-.02-.09-.03-.21-.02-.31,0-.09-.01-.23.02-.31.02-.07.19.06.3.18.17.19.31.4.48.58.23.24.46.48.71.71.13.12.26.23.38.35,0,0,.02.03.02.04.03.08,0,.18-.06.23Z"/>
  <path class="cls-2" d="M38.74,48.53h0s0,0,0,0c-.01.01-.02.03-.03.04-.02.02-.05.03-.08.04l-.83.61s-.02.02-.03.03c-.03.02-.06.04-.09.06-.08,0-.18,0-.25-.05-.32-.52-.58-1.08-.86-1.61-.04-.08-.09-.19-.11-.3-.03-.09-.08-.21-.07-.31,0-.07.2,0,.34.08.22.13.41.29.63.41.29.16.59.33.88.48.16.08.32.15.47.22,0,0,.03.02.03.03.05.07.05.17,0,.24Z"/>
  <path class="cls-1" d="M28,47.45c.54.81,1.29,1.47,2.17,1.86,1.18.52,2.53.84,3.67.84,1.03,0,2.45-.27,3.3-.9.6-.48,1.26-.68,1.65-1.67.05-.15.64-1.15.69-1.27.08-.23.53-.56.76-.56.45,0,.57.46.47.9-.48,2.14-2,3.34-3.48,4.09-.88.45-3.04.72-4.04.61-3.37-.35-3.11-.66-4.85-1.43-.27-.12-.52-.27-.75-.45-.65-.52-1.24-1.16-1.66-2.08-.33-.87.35-1.87.83-1.39.8.78.84.85,1.24,1.46Z"/>
</svg>
