<?xml version="1.0" encoding="UTF-8"?>
<svg id="Layer_1" data-name="Layer 1" xmlns="http://www.w3.org/2000/svg" viewBox="0 0 70 70">
  <defs>
    <style>
      .cls-1 {
        fill: #0f1027;
      }

      .cls-2 {
        fill: #fff;
      }
    </style>
  </defs>
  <g>
    <path class="cls-1" d="M29.28,40.56s-.81.1-.9.07c-1.12-.16-1.74-.81-1.8-1.68-.02-.27.11-.99.23-1.23.19-.43.51-.52,1.54-.65,2.09.17,2.09.72,2.16,1.85.03.42-.13.81-.37,1.13-.32.3-.46.49-.86.51Z"/>
    <path class="cls-2" d="M25.82,39.36c-.03-.41-.03-1.39.24-1.81.22-.33,1.21-.91,1.59-.95.66-.07,1.83-.06,2.53.46.57.43.8,1.03.91,2.12v.04c-.05.52-.18.89-.48,1.27l-.5.57c-.49.44-1.01.5-1.39.52-1.52.1-2.81-.72-2.91-2.23ZM26.82,38.73l.02.38c.02.31.28.82.5,1,.28.22.79.43,1.14.41.6-.04,1.21.07,1.57-.93.06-.17,0-1.02-.17-1.35-.15-.34-.38-.51-.48-.58-.63-.33-1.45-.45-1.96-.23s-.67.63-.63,1.3ZM27.85,38.58s-.15.02-.17.01c-.22-.04-.33-.18-.35-.36,0-.06.02-.21.04-.26.04-.09.1-.11.29-.14.4.04.4.16.42.4,0,.09-.02.17-.07.24-.06.06-.09.1-.16.11Z"/>
  </g>
  <g>
    <path class="cls-1" d="M39.22,40.63s-.81.1-.9.07c-1.12-.16-1.74-.81-1.8-1.68-.02-.27.11-.99.23-1.23.19-.43.51-.52,1.54-.65,2.09.17,2.09.72,2.16,1.85.03.42-.13.81-.37,1.13-.32.3-.46.49-.86.51Z"/>
    <path class="cls-2" d="M35.76,39.43c-.03-.41-.03-1.39.24-1.81.22-.33,1.21-.91,1.59-.95.66-.07,1.83-.06,2.53.46.57.43.8,1.03.91,2.12v.04c-.05.52-.18.89-.48,1.27l-.5.57c-.49.44-1.01.5-1.39.52-1.52.1-2.81-.72-2.91-2.23ZM36.76,38.8l.02.38c.02.31.28.82.5,1,.28.22.79.43,1.14.41.6-.04,1.21.07,1.57-.93.06-.17,0-1.02-.17-1.35-.15-.34-.38-.51-.48-.58-.63-.33-1.45-.45-1.96-.23s-.67.63-.63,1.3ZM37.78,38.65s-.15.02-.17.01c-.22-.04-.33-.18-.35-.36,0-.06.02-.21.04-.26.04-.09.1-.11.29-.14.4.04.4.16.42.4,0,.09-.02.17-.07.24-.06.06-.09.1-.16.11Z"/>
  </g>
</svg>