<?xml version="1.0" encoding="UTF-8"?>
<svg id="Layer_1" data-name="Layer 1" xmlns="http://www.w3.org/2000/svg" viewBox="0 0 70 70">
  <defs>
    <style>
      .cls-1 {
        fill: #0f1027;
      }

      .cls-2 {
        fill: #fff;
      }
    </style>
  </defs>
  <g>
    <path class="cls-1" d="M29.49,40.12c-.05,0-.93.12-1.04.08-1.3-.18-2.02-.94-2.08-1.95-.02-.31.13-1.15.27-1.43.22-.5.59-.6,1.78-.75,2.41.2,2.42.83,2.5,2.15.03.48-.15.93-.43,1.3-.37.34-.53.56-1,.59Z"/>
    <path class="cls-2" d="M25.49,38.73c-.03-.47-.04-1.61.28-2.09.25-.38,1.4-1.05,1.84-1.1.77-.08,2.12-.07,2.92.54.66.5.93,1.19,1.05,2.46v.04c-.06.6-.21,1.03-.55,1.47l-.58.66c-.57.5-1.16.57-1.61.6-1.76.11-3.25-.84-3.37-2.58ZM26.65,38.01l.03.44c.02.36.32.95.58,1.16.32.26.92.5,1.32.47.69-.05,1.41.08,1.82-1.08.07-.2,0-1.18-.19-1.57-.17-.4-.44-.59-.56-.67-.73-.38-1.68-.53-2.27-.26s-.78.73-.73,1.51ZM27.84,37.84s-.18.02-.2.02c-.25-.04-.39-.2-.4-.42,0-.07.02-.25.05-.3.04-.11.11-.13.34-.16.46.05.46.18.48.46,0,.1-.03.2-.08.28-.07.07-.1.12-.19.12Z"/>
  </g>
  <g>
    <path class="cls-1" d="M39.73,40.22c-.07,0-1.34.17-1.49.12-1.86-.26-2.89-1.34-2.98-2.79-.03-.44.19-1.65.39-2.04.32-.71.85-.86,2.55-1.08,3.46.29,3.46,1.19,3.58,3.07.04.69-.21,1.34-.62,1.87-.53.49-.76.8-1.43.85Z"/>
    <path class="cls-2" d="M34.01,38.23c-.04-.67-.05-2.3.4-2.99.36-.54,2.01-1.51,2.64-1.58,1.1-.12,3.03-.11,4.19.77.95.72,1.33,1.71,1.51,3.52v.06c-.09.86-.31,1.48-.79,2.11l-.83.95c-.82.72-1.67.82-2.3.86-2.52.16-4.66-1.2-4.82-3.7ZM35.67,37.19l.04.63c.03.51.46,1.36.83,1.66.46.37,1.31.71,1.89.68.99-.06,2.01.12,2.6-1.55.1-.28,0-1.68-.28-2.24-.25-.57-.63-.85-.8-.96-1.05-.55-2.4-.75-3.25-.37s-1.12,1.05-1.05,2.16ZM37.36,36.94s-.26.03-.29.02c-.36-.06-.55-.29-.58-.6,0-.09.03-.35.07-.44.06-.15.16-.18.49-.23.66.07.66.26.69.66,0,.15-.04.29-.12.4-.1.1-.15.17-.27.18Z"/>
  </g>
</svg>
