<?xml version="1.0" encoding="UTF-8"?>
<svg id="Layer_1" data-name="Layer 1" xmlns="http://www.w3.org/2000/svg" viewBox="0 0 70 70">
  <path fill="#0f1027" d="M1.63,44.69c-.7-1.33-.39-2.45,0-4.02.13-.55.35-1.08.56-1.57.72-2.25,2.4-6.23,3.11-5.46,1.55,1.68,3,5.1,3.35,9.37.2,2.39-2.78,3.49-4.98,2.96-.81-.2-1.65-.72-2.02-1.28Z"/>
  <path fill="#0f1027" d="M65.54,35.99c-5.18-5.91-6.35-8.44-12.31-15.62-2.32-2.8-11.52-14.29-14.57-14.74-.31-.03-.6.03-.9.05-.04-.02-.07-.04-.12-.05-2.17-.24-6.1,1.18-8.94,2.46-.05-.16-.12-.38-.22-.73-.32-.88-.48-1.82-.73-2.37-1.6-3.59-2.61-4.48-4.82-4.21-.3.04-.9.1-1.28.17-.57.11-1.33,1.02-1.68,1.64-.42,1.09-.39,1.9-.17,3.19.08.44.89,5.6,1.23,6.67-1.46,1.01-2.53,1.9-3.58,2.8-3.02,2.58-8.92,9.44-10.07,12.76-.01.04.02.05.01.09-.4.87-.34,1.83.46,3.2,3.17,4.44,5.38,7.26,5.77,7.73,5.19,6.24,9.87,11.51,15.35,17.59,5.4,5.98,9.08,12.47,13.37,9.39,2.88-1.77,9.41-5.72,11.09-7.12,3.73-3.1,3.28-2.36,7.83-6.41,4.26-3.38,3.06-2.32,4.84-4.07,2.51-2.46,2.28-3.25,2.65-5.11.28-1.42-1.13-4.47-3.22-7.31ZM30.18,16.26c-.12-.7-.26-1.55-.48-2.85-.11-.63-.21-1.25-.31-1.85,2.37-1.23,4.01-1.68,5.25-1.87-.35.64-.7,1.28-1.28,2.41-.92,1.8-1.97,3.06-3.18,4.16ZM21.97,2.84c.34-.42,1.01-.32,1.25-.27,1.77.31,2.34,3.17,2.75,4.85l.27.15h0s-.28-.15-.28-.15c.16.53.3,1.05.49,1.76-1.49.8-2.7,1.51-3.75,2.17-.48-3.03-1.6-7.46-.74-8.51ZM22.84,15.79c1.71-1.28,3.14-2.21,4.44-3.01.09.61.17,1.21.39,2.04.18.69.39,2.4.54,3.02-.96.68-1.99,1.37-3.15,2.15-8.47,5.78-9.92,4.85-13,6.13,1.96-3.93,7.29-7.71,10.78-10.33ZM54.58,40.6c-3.3,1.05-7.83,1.55-7.83,1.55-2.87-.15-7.2-.41-11.09-1.14-16.72-2.12-16.98-5.55-21.04-10.2-.52-.59-.96-1.12-1.37-1.61,2.8-.61,6.08-1.9,7.82-2.74,3.9-1.88,6.09-3.28,7.86-4.59.04.21.07.39.13.62.11.47.12,1.11.17,1.7-.83.64-1.03,1.86-1.03,2.93.18.61.42,1.63,1.09,1.93.36.18,1.51.42,1.93.42,1.39,0,2.37-.63,2.82-2.14.06-.12.18-1.13.18-1.19,0-.55-.14-.87-.53-1.4-.37-.28-1.01-.54-1.6-.73-.23-.78-.56-1.68-.72-2.37-.13-.55-.25-1.02-.35-1.44,2.84-2.33,5.21-4.98,6.4-8.03,0-.03.06-.08.07-.11.9.79,1.85,1.63,2.64,2.58,3.07,3.7,9.93,10.58,15.99,17.29,3.83,4.25,1.29,7.74-1.55,8.65Z"/>
</svg>
