<?xml version="1.0" encoding="UTF-8"?>
<svg id="Layer_1" data-name="Layer 1" xmlns="http://www.w3.org/2000/svg" viewBox="0 0 70 70">
  <defs>
    <style>
      .cls-1 {
        fill: #0f1027;
      }

      .cls-2 {
        fill: #adff1d;
      }
    </style>
  </defs>
  <path class="cls-2" d="M50.29,45.34c1.66,12.77-2.04,13.91-15.34,14.41-16.37.62-16.86-3.42-15.33-16.18,1.73-14.49,5.47-17.22,15.52-17.22,12,0,13.85,9.01,15.15,18.98Z"/>
  <path class="cls-1" d="M58.58,20.02c-8.61-10.6-17.17-11.26-25.33-11.26s-14.93,3.98-19.95,10.23c-3.51,4.37-4.64,12.36-4.64,17.86,0,12.37,6.27,21.73,18.82,24.11.63.13,1.26.25,1.88.25,8.28,0,16.91.83,23.53-4.84,5.14-4.41,6.08-9.37,7.79-15.12,1.38-4.64.54-17.61-2.1-21.23ZM30.76,58.31c-2.9-.15-6.44-1.11-9.67-3.06-.7-5.26-1.18-11.53.16-16.34.07-.3.68-3.16.75-3.55.46-2.56.45-2.89,1.59-4.41.81-1.07,1.82-1.99,2.97-2.7l.55-.34c.77-.24,1.9-.63,2.8-.74.47-.06,2.61-.11,2.69-.12,1.48-.16,9.38.6,10.84,1.95,6.09,5.62,5.1,17.86,5.51,21.03.54,4.14.48,3.25.55,4.68-3.96,2.74-9.83,4.05-18.74,3.59ZM56.9,42.17c-.94,4-2.3,7.39-4.57,10.02-.26-2.65-.35-1.56-.98-6.3-.65-4.88-3-14.61-5.17-17.56-2.26-3.06-9.68-3.89-13.48-4-1.46-.04-6.23,1.03-6.62,1.23-3.09,1.6-4.05,3.66-5.58,6.64-2.03,4.11-2.2,14.51-1.94,21.23-4.07-3.42-7.06-8.76-6.49-16.51.36-4.81-.94-8.92,6.41-18.19,1.93-2.43,7.12-6.67,14.67-6.67,10.34,0,15.42,2.8,18.29,4.9,10.52,7.72,6.02,22.83,5.47,25.2Z"/>
</svg>