<?xml version="1.0" encoding="UTF-8"?>
<svg id="Layer_1" data-name="Layer 1" xmlns="http://www.w3.org/2000/svg" viewBox="0 0 260 160">
  <defs>
    <style>
      .cls-1 {
        fill: #0f1027;
      }
    </style>
  </defs>
  <path class="cls-1" d="M62.16,55.34c-.43,1.17-1.44,2.04-2.66,2.32-2.38.55-4.89-1.65-10.11-.74-4.71.57-6.26,3.09-6.66,5.08-.43,2.1.15,8.33,1.02,11.64.27,1.01.47,2.05.59,3.09.09.72.22,1.44.36,2.12.43,3.75,1.84,10.32,2.22,14.64s.83,9.68-1.05,11.85c-1.79,2.07-2.02,2.27-4.7,3.83-.85.49-4.57,1.6-5.39,1.7-2.66.31-4.76.85-7.86,0-1.23-.33-2.9-2.09-2.54-4.43.21-1.4,1.1-2.19,3.59-2.35,9.54-.55,13.11-1.52,11.17-13.1-.76-4.56-2.46-10.63-3.22-15.47-.15-.96-1.94-10.85-1.29-14.23.98-5.11,4.8-11.48,12.57-11.53,5.33.19,9.43.35,11.62,1.11,1.34.47,1.92.87,2.38,2.75.08.42.19.69.1,1.16-.07.36-.08.42-.13.55Z"/>
  <path class="cls-1" d="M72.77,71.54c.27,4.63-14.61,3.96-13.79,18.19.17,2.96,3.94,5.44,6.54,7.3,4.17,2.89,12.8-.41,13.06,4.06.21,3.6-5.28,4.31-7.84,4.46-4.55.26-12.47-1.78-15.48-5.48-2.79-3.42-3.39-5.84-3.64-10.08-.27-4.72.54-11.58,4.19-14.99,2.96-2.9,7.58-6.29,11.89-6.53,1.36-.08,2.74.16,3.9.82.34.38.85.75.87,1.23.18.31.28.63.3,1.02Z"/>
  <path class="cls-1" d="M98.44,72.47c1.92,4.4,4.8,8.16,6.72,12.57,1.44,3.36,5.28,7.52,5.28,10.97,0,.64-.24,1.6-.8,2.08-.88.72-2.88,1.84-4.08,1.84-.48,0-.96-.08-1.44-.24-1.92-2.24-2.96-4.48-4.32-7.04-.48-.96-1.12-1.84-1.68-2.8-.72-1.28-1.36-2.72-2.08-4.08l-4.56-8.32c-1.44.56-3.04.32-4.48.48-.08,1.28-.08,2.64-.08,3.92,0,2.4.08,4.72.24,7.04,0,.96.24,1.92.24,2.88,0,2.24-2.48,4.96-4.8,4.96-2.16,0-3.84-2.08-3.84-4.24,0-1.44.32-2.8.32-4.24,0-2.32.16-4.56.16-6.88,0-6.24-.16-12.57-.56-18.81,0-.48-.08-.96-.08-1.44,0-1.57.15-3.15.29-4.72.08-.88.49-1.71,1.21-2.22,2.34-1.63,5.44-1.87,8.18-1.87,7.2,0,14.09.8,14.09,9.69,0,3.36-1.28,8.17-3.92,10.49Z"/>
  <path class="cls-1" d="M124,56.11c-.96.24-2.4,0-2.96,1.04,0,11.37-.59,34.11.05,45.48,1.28,2.56,9.13-1.84,9.13,4.16v.24c-.08,3.52-5.84,3.12-8.24,3.12-1.6.08-3.28,0-4.88.16-1.76.08-3.44.72-5.2.72s-3.44-.56-3.44-2.64c0-5.12,3.52-2.96,5.2-4.96.24-2.88-.21-11.13-.21-14.01,0-8.17.4-22.42.56-30.67-.64-.48-1.44-.64-2.32-.64s-1.76.16-2.64.16c-2.16,0-3.6-1.2-3.6-3.44,0-.48.08-.88.16-1.28.56-3.12,5.2-2.4,7.52-2.56,4.08-.24,8.16-1.52,12.25-1.52,1.92,0,3.6.64,3.6,2.88,0,2.48-3.04,3.28-4.96,3.76Z"/>
  <path class="cls-1" d="M147.5,76.56c4.19,1.26,8.3,5.16,8.3,9.77,0,3.56-1.33,6.7-4.12,8.93-4.12,3.42-10.26,5.72-15.7,5.72-1.47,0-3-.14-4.53-.14-.14,0-.77-.21-.91-.28-1.53-.7-1.95-2.23-1.95-3.84,0-1.95.49-3.84.49-5.79,0-5.23-.21-10.53-.21-15.84,0-4.19.28-8.44.28-12.63,0-2.3,3.49-2.3,5.09-2.3,5.79,0,12.98.28,15.7,6.42.42.98.63,2.09.63,3.14,0,4.81-2.65,5.37-3.07,6.84Z"/>
  <path class="cls-1" d="M181.6,74.67c4.8,1.44,9.53,5.92,9.53,11.21,0,4.08-1.52,7.68-4.72,10.25-4.72,3.92-11.77,6.56-18.01,6.56-1.68,0-3.44-.16-5.2-.16-.16,0-.88-.24-1.04-.32-1.76-.8-2.24-2.56-2.24-4.4,0-2.24.56-4.4.56-6.64,0-6-.24-12.09-.24-18.17,0-4.8.32-9.69.32-14.49,0-2.64,4-2.64,5.84-2.64,6.64,0,14.89.32,18.01,7.36.48,1.12.72,2.4.72,3.6,0,5.52-3.04,6.16-3.52,7.84Z"/>
  <path class="cls-1" d="M203.41,55.98c-.53,9.11-.1,18.28-.07,27.43.02.88-.03,1.68-.09,2.56-.11,1.6.59,15.48,1.88,16.69,3.3-.18,6.53-.53,9.85-.95.08-.07.17-.07.24-.06,1.28.09,2.61,1.78,2.53,2.98-.07,1.12-.86,2.03-1.63,2.78-3.17,3-8.26,2.42-12.23,2.95-1.54.22-3.1.76-4.54.66-.96-.06-1.74-.44-2.51-.89-1.06-2.16-.83-4.39-.83-6.79.08-8.42,0-29.16.16-37.57.05-3.13.1-6.25.06-9.3-.04-1.77-.08-1.78.04-3.46.18-2.64,2.33-3.7,4.65-3.54,3.75.25,2.62,3.39,2.54,5.79l-.05.72Z"/>
  <path class="cls-1" d="M217.99,96.8c-1,.41-2,1.04-3.14,1.04-4.85,0-3.78-8.43-3.78-11.47v-5.39c0-6.77.07-13.68-.36-20.45-.07-1.45-.21-2.9-.21-4.28,0-1.45-.02-2.84.96-4.76,1.1-1.39,1.75-2.01,3.18-2.01.79,0,1.76,0,4.45,1.04,4.64,2.63,6.69,5.39,9.67,10.01,3.16,4.9,5.92,10.3,5.92,16.03,0,11.26-7.13,15.82-16.7,20.25Z"/>
</svg>