<?xml version="1.0" encoding="UTF-8"?>
<svg id="Layer_1" data-name="Layer 1" xmlns="http://www.w3.org/2000/svg" viewBox="0 0 70 70">
  <defs>
    <style>
      .cls-1 {
        fill: #0f1027;
      }
    </style>
  </defs>
  <path class="cls-1" d="M45.4,21.65c-1.97-1.07-3.39-1.86-4.39-2.44-.23-.16-.63-.43-1.31-.93-.92-.5-1.03-.55-1.22-.32-3.83,4.64-6.36,8.5-9.81,13.42-.99,1.41-1.89,2.77-2.91,4.11,0,0-.01.02-.02.03,0,0-.01.02-.02.03h0c-.09.14-.18.29-.27.48-.72,1.72-2.15,5.19-3.55,10.56-.21.82-.65,2.62-.24,3.42.17.3.5.62.82.77.57.27,1.39-.13,1.98-.25,1.54-1.1,2.13-1.78,4.08-3.34.97-.77,1.53-.93,3.2-2.63,1.16-1.45,1-1,2.06-2.24.03-.04.09-.12.15-.23.01-.01.03-.01.04-.02,1.54-1.77,3.17-4.49,4.56-6.47,2.29-3.27,4.04-6.63,6.33-9.91.7-1,.83-1.1,1.55-2.14.14-.2.34-.61-1.03-1.9ZM34.9,35.14c-.46.66-.95,1.37-1.45,2.07-.14.15-.29.33-.46.53-.58.69-2.19,3.27-2.86,3.96-.5.52-4.09,3.58-5.74,5.14.16-1.11,1.59-4.81,3.2-7.7.04-.11.24-.48.48-.92.2-.41.42-.76.63-1.13.02-.04.04-.08.06-.12,1.15-1.97,2.41-3.5,3.55-5.13,2.29-3.27,3.64-5.73,5.93-9,.12-.18.74-1.36,1.22-1.49.52-.07,1.24.68,2.81,1.55.22.12.3.42.16.63-2.7,4.06-4.49,7.26-7.51,11.59Z"/>
</svg>