<?xml version="1.0" encoding="UTF-8"?>
<svg id="Layer_1" data-name="Layer 1" xmlns="http://www.w3.org/2000/svg" viewBox="0 0 70 70" width="200" height="200">
  <defs>
    <style>
      .cls-1 {
        fill: #0f1027;
      }
    </style>
  </defs>
  <path class="cls-1" d="M66.98,33.2c-.04-.21-.21-.38-.41-.43-1.27-.35-2.11-.26-2.93-.26-4.1,0-11.66-.77-15.88-.35-1.44-.21-2.59-.23-3.05-.23-.62,0-1.3-.16-1.92-.16h-.14c-2.84-.07-5.67-.16-8.51-.16-2.25,0-4.48.02-6.72.05-.5,0-1.33-.02-1.83-.07-1.61-.14-2.04-.18-2.99-.23-1.07-.06-2.23-.22-3.22-.18-1.44.1-2.7.21-4.13.13l-2.86-.16c-2.57-.22-5.29-.22-8.25.54-.77.2-1.32.9-1.28,1.7.08,1.61.32,2.58.3,2.79-.1,1.79.09,2.87.08,4.67-.05,1.43-.1.74-.1,2.67,0,3.75.08,2.4.22,10.63.02,1.12.99,1.98,2.11,1.86.47-.05,1.01-.14,1.67-.1,3.04.17,8.05-.33,11.38-.59,3.06-.19,2.97.72,9.54.1.11-.02,1.09.01,1.43,0,.46.06,1.12.07,1.33.14.55.02.27.04.8.04l.8-.02c.41,0,.82.09,1.21.09.55,0,1.12-.07,1.67-.09,1.17-.07,2.36-.09,3.52-.09,1.83,0,3.75,0,5.58.09.27.02.53.05.8.05,1.07,0,2.13-.21,3.2-.21.39,0,.59,0,.95.06.29-.02.79,0,1.1-.05.71.04.52-.05,2.07-.05.49,0,2.15.18,2.83,0,.11-.03.22-.06.33-.06,3.93-.1,8.53.98,11.57-.51.45-.9.04-1.83.04-2.81,0-.18-.16-1.12-.16-1.39-.07-1.11.03-1.74.05-2.92.01-.7-.04-1.1-.09-1.3-.04-.18-.05-.36-.05-.54,0-1.81.01-1.35-.02-2.32-.09-.98-.1-1.31-.1-2.38,0-1.52-.04-2.64-.04-4.25,0-1.75.38-2.26.08-3.67ZM66.2,43.51s0,2.78.12,3.46c.21,1.32-.09,5.29.36,6.12,1.41,2.58-11.38.61-16.2,1.65-.05,0-.09,0-.14,0-.62,0-1.21.16-1.83.16h-.14c-2.84-.07-5.67-.16-8.51-.16-2.65,0-1.2-.1-3.86-.06-.8-.17-3.95-.17-4.1-.21-.86-.25-3.23.06-4.34-.07-2.13,0-5.01.1-6.44.02-2.83-.16-4.3.6-7.12.48-.55-.02-2.71-.14-5.56-.01-.46.02-3.94-.11-3.95-.57l-.18-3.51c-.3-2.49-.08-1.31-.05-4.04.07-5.14.12-1.19-.13-9.98.19-1.32-.39-3.99.08-4.41,6.44-1.69,6.65.02,12.58-.18,1.06-.04,3.3-.59,4.31-.29,1.69.49,1.84.34,4.35.41,1.32.09.91.02,1.72.09.56.11.86.06,1.4.12l.77-.03c.41,0,.88.04,1.27.04.55,0,1.08.09,1.63.07,1.17-.07,2.36-.09,3.52-.09,1.83,0,3.75,0,5.58.09.27.02.53.05.8.05,1.07,0,1.19-.06,2.27-.06.39,0,1.06-.09,1.43-.02.02-.01.78.08.8.07,1.36,0,2.72-.04,4.04.04,1.51-.03,7.82.65,9.57.29.96-.2,5.26-.03,5.98.59.27,3.04-.14,7.21-.04,9.94Z"/>
</svg>