<?xml version="1.0" encoding="UTF-8"?>
<svg id="Layer_1" data-name="Layer 1" xmlns="http://www.w3.org/2000/svg" viewBox="0 0 70 70">
  <defs>
    <style>
      .cls-1 {
        fill: #0f1027;
      }
    </style>
  </defs>
  <path class="cls-1" d="M66.37,3.68c-1.47-.46-2.16-.41-3.06-.41-4.1,0-11.66-.77-15.88-.35-1.44-.21-2.59-.23-3.05-.23-.62,0-1.3-.16-1.92-.16h-.14c-2.84-.07-5.67-.16-8.51-.16-2.25,0-4.48.02-6.72.05-.5,0-1.33-.02-1.83-.07-1.61-.14-2.04-.18-2.99-.23-1.07-.06-2.23-.22-3.22-.18-1.44.1-2.7.21-4.13.13l-2.86-.16c-2.58-.22-5.32-.22-8.3.56-.76.2-1.27.91-1.23,1.69.08,1.61.32,2.58.3,2.79-.1,1.79.09,2.87.08,4.67.12,4.31.15,8.52.17,12.83.09,12.3-.43,28.06.04,40.57.04,1.12,1.03,1.97,2.14,1.84.46-.05,1-.13,1.63-.1,3.04.17,8.05-.33,11.38-.59,3.06-.19,2.97.72,9.54.1.11-.02,1.09.01,1.43,0,.46.06,1.12.07,1.33.14.55.02.27.04.8.04l.8-.02c.41,0,.82.09,1.21.09.55,0,1.12-.07,1.67-.09,1.17-.07,2.36-.09,3.52-.09,1.83,0,3.75,0,5.58.09.27.02.53.05.8.05,1.07,0,2.13-.21,3.2-.21.39,0,.59,0,.95.06.29-.02.79,0,1.1-.05.71.04.52-.05,2.07-.05.49,0,2.14.18,2.83,0,.11-.03.22-.06.33-.06,3.93-.1,8.53.98,11.57-.51.45-.9-.32-5.52-.32-6.5,0-.18-.09-.36-.09-.63-.45-3.13-.45-6.71-.45-9.93,0-8.95.9-17.9.9-26.94,0-2.24-.09-4.38-.18-6.62-.09-.98-.27-2.06-.27-3.13,0-1.52.63-3.13.63-4.74,0-1.88-.12-1.99-.88-3.47ZM65.83,21.45c0,8.77-.9,17.45-.9,26.22,0,2.51,1.06,13.17,1.19,13.64,1.99,7.15-8.7,3.47-13.86,3.99-.05,0-3.61.22-3.66.22-.62,0-1.89-.11-2.51-.11h-.14c-2.84-.07-5.67-.16-8.51-.16-2.65,0-1.2-.1-3.86-.06-.8-.17-3.95-.17-4.1-.21-.86-.25-3.23.06-4.34-.07-2.13,0-5.01.1-6.44.02-2.83-.16-4.3.6-7.12.48-.55-.02-3.69.09-6.55.22-.46.02-1.18-1.33-1.19-1.79l.24-1.95c-.8-4.43-.15-9.02-.13-11.88.1-12.68.34-29.73-.38-42.41.19-1.32-.47-3.87,0-4.29,3.58-.27,4.71-.29,7.31-.72,1.04-.17,8.11.13,9.12.42,1.69.49,1.84.34,4.35.41,1.32.09.91.02,1.72.09.56.11.86.06,1.4.12l.77-.03c.41,0,.88.04,1.27.04.55,0,1.08.09,1.63.07,1.17-.07,2.36-.09,3.52-.09,1.83,0,3.75,0,5.58.09.27.02.53.05.8.05,1.07,0,1.19-.06,2.27-.06.39,0,1.06-.09,1.43-.02.02-.01.78.08.8.07,1.36,0,2.72-.04,4.04.04,1.51-.03,7.82.65,9.57.29.96-.2,5.95.05,6.66.68.27,3.04,0,13.65,0,16.69Z"/>
</svg>