<?xml version="1.0" encoding="UTF-8"?>
<svg id="Layer_1" data-name="Layer 1" xmlns="http://www.w3.org/2000/svg" viewBox="0 0 70 70">
  <defs>
    <style>
      .cls-1 {
        fill: #0f1027;
      }
    </style>
  </defs>
  <path class="cls-1" d="M33.5,33.97c-2.28-.09-5.88-1.61-7.01-3.67-.09-.16-.14-.33-.19-.5-1.12-3.45.37-6.3,3.46-8,1.37-.75,3.53-1.57,5.1-1.3,2.25.39,5.12,1.99,6.25,4.05s1.53,3.23.46,5.44c-.55,1.15-1.71,2-2.8,2.6-1.5.82-3.5,1.47-5.26,1.38ZM35.29,23.6c-1.11-.32-2.94.35-3.87.87-1.75.96-2.72,2.75-1.67,4.66,1.39,2.53,4.69,2.47,6.94,1.23.69-.38,1.81-1.15,1.95-2,.18-1,0-1.99-.48-2.87s-2.02-1.61-2.86-1.88Z"/>
  <path class="cls-1" d="M44.3,49.24c-2.63-.08-1.52-8.45-9.6-8.69-1.68-.05-4.74.45-5.92,1.82-1.84,2.22-.4,7.26-2.94,7.18-2.04-.06-2.18-3.2-2.13-4.65.08-2.59,1.54-5.82,3.94-7.06,2.12-1.12,4.86-1.54,7.27-1.46,2.68.08,6.52.87,8.27,3.11,1.49,1.82,3.18,4.59,3.11,7.05-.02.77-.23,1.54-.66,2.16-.23.17-.47.44-.74.43-.18.09-.37.13-.59.12Z"/>
</svg>