<?xml version="1.0" encoding="UTF-8"?>
<svg id="Layer_1" data-name="Layer 1" xmlns="http://www.w3.org/2000/svg" viewBox="0 0 70 70">
  <defs>
    <style>
      .cls-1 {
        fill: #0f1027;
      }
    </style>
  </defs>
  <path class="cls-1" d="M41.96,25.63c-.34,1.78-1.29,1.5-2.66,2.36-.39.21-2.13,1.08-2.47,1.37-.91.67-1.77.95-2.75,1.61-2.11,1.36-3.16,1.54-5.28,2.97-.1.12-2.16,1.28-2.45,1.41-2.88,1.29,1.47,3.92,2.22,4.43,2.76,2.05,7.23,4.07,10.49,6.19.54.35,1.01.82,1.38,1.35.11.16.21.32.28.46.1.23.23.63.19.83v.06c-.22,1.07-1.17,1.88-2.26,1.79-.15-.01-.31-.03-.46-.06-2.94-.57-8.7-5.22-11.39-6.74-2.19-1.24-4.82-2.94-6.39-5.16-.6-.85-.81-1.9-.62-2.92h0c.07-.36.16-.83.47-.99,1.11-.99,3.89-2.51,5.34-3.43,4.31-2.85,7.67-5.36,12.34-7.5.91-.37,1.46-.39,1.73-.33,1.23.24,1.92.15,2.25.8.04.15.07,1.3.03,1.5Z"/>
</svg>