<?xml version="1.0" encoding="UTF-8"?>
<svg id="Layer_1" data-name="Layer 1" xmlns="http://www.w3.org/2000/svg" viewBox="0 0 70 70">
  <defs>
    <style>
      .cls-1 {
        fill: #ff7bac;
      }

      .cls-2 {
        fill: #0f1027;
      }

      .cls-3 {
        fill: #ffa4c9;
      }
    </style>
  </defs>
  <g>
    <path class="cls-2" d="M40.64,49.25c-.22-.01-5.01-.09-5.25-.08-.29,0-.57-.03-.86-.01-.28,0-.56.03-.83.04-.52.01-1.05,0-1.57,0-.7.01-1.42,0-2.12.03-.13,0-2.55-.11-2.69-.12-.29-.02-.69-.1-.96,0-.15.05-.2.19-.21.33-.03.4.17.85.61.88.08,0,.55-.08.69-.09.51-.03,3.22.12,3.72.16,0,0,.28.05.29.06l3.8-.06s.21,0,.46-.03c.17-.02.33-.03.5-.03,1.16.03,4.88.2,4.92-.38.02-.29-.16-.68-.49-.7Z"/>
    <path class="cls-1" d="M35.41,50.38h-4.24s0,0,.1.24c-.1.97-.06.48-.06.58-.02.26-.01.36.03.61.02.14.07.4.19.66.36.61.34.59.91.92.17.09.67.15.86.16.4.03.97-.15,1.32-.37.31-.2.56-.55.67-.91l.04-.29c.05-.17.06-.25.07-.43.03-.37-.1-.75.11-1.17Z"/>
  </g>
  <g>
    <path class="cls-2" d="M40.64,49.25c-.22-.01-5.01-.09-5.25-.08-.29,0-.57-.03-.86-.01-.28,0-.56.03-.83.04-.52.01-1.05,0-1.57,0-.7.01-1.42,0-2.12.03-.13,0-2.55-.11-2.69-.12-.29-.02-.69-.1-.96,0-.15.05-.2.19-.21.33-.03.4.17.85.61.88.08,0,.55-.08.69-.09.51-.03,3.22.12,3.72.16,0,0,.28.05.29.06l3.8-.06s.21,0,.46-.03c.17-.02.33-.03.5-.03,1.16.03,4.88.2,4.92-.38.02-.29-.16-.68-.49-.7Z"/>
    <path class="cls-3" d="M35.41,50.38h-4.24s0,0,.1.24c-.1.97-.06.48-.06.58-.02.26-.01.36.03.61.02.14.07.4.19.66.36.61.34.59.91.92.17.09.67.15.86.16.4.03.97-.15,1.32-.37.31-.2.56-.55.67-.91l.04-.29c.05-.17.06-.25.07-.43.03-.37-.1-.75.11-1.17Z"/>
  </g>
</svg>