<?xml version="1.0" encoding="UTF-8"?>
<svg id="Layer_1" data-name="Layer 1" xmlns="http://www.w3.org/2000/svg" viewBox="0 0 70 70">
  <defs>
    <style>
      .cls-1 {
        fill: #0f1027;
      }
    </style>
  </defs>
  <path class="cls-1" d="M35.54,23.8c0,.62.24,7.84.86,8.2.8-.04,8.33,0,9.13,0,.84,0,2.22.22,2.22,1.33,0,.44-.27.84-.31,1.24-.93,1.82-11.39.27-11.39,2.57,0,1.02.17,9.02.17,10s-.93,2.26-1.95,2.26c-.45,0-.84-.22-1.24-.31-1.2-.93-.93-1.86-.93-3.19,0-.75.05-8.4-.44-9.02-1.2.13-9.47.39-10.71.39-1.11,0-1.82-.62-1.82-1.77,0-2.09,10.2-1.9,12.08-2.56.89-.71.42-8.95.42-9.97,0-1.33.35-1.95,1.6-2.53h.66c1.02,0,1.73.27,1.73,1.38,0,.67-.09,1.33-.09,2Z"/>
</svg>