<?xml version="1.0" encoding="UTF-8"?>
<svg id="Layer_1" data-name="Layer 1" xmlns="http://www.w3.org/2000/svg" viewBox="0 0 70 70">
  <defs>
    <style>
      .cls-1 {
        fill: #0f1027;
      }

      .cls-2 {
        fill: #ffa631;
      }
    </style>
  </defs>
  <path class="cls-2" d="M53.19,43.72c1.66,12.77-8.27,17.73-18.21,16.22-16.25-2.46-19.69-3.45-18.21-16.22,1.16-9.99,8.15-18.21,18.21-18.21s16.92,8.24,18.21,18.21Z"/>
  <path class="cls-1" d="M58.74,20.02c-8.61-10.6-17.17-11.26-25.33-11.26s-14.93,3.98-19.95,10.23c-3.51,4.37-4.64,12.36-4.64,17.86,0,6.65,1.83,12.43,5.47,16.72.36.7,1.02,1.32,1.73,1.82.83.76,1.74,1.45,2.71,2.08.09.14.23.22.39.26.6.37,1.23.72,1.88,1.04,0,.18.04.27.11.06,1.95.94,4.12,1.66,6.53,2.12.63.13,1.26.25,1.88.25,8.28,0,16.91.83,23.53-4.84,5.14-4.41,6.08-9.37,7.79-15.12,1.38-4.64.54-17.61-2.1-21.23ZM19.17,37.89c1.59-5.7,8.61-10.7,14.61-10.7,2.91,0,10.04-.64,14.03,5.05,4.31,5.85,3.5,9.12,3.92,11.79.86,5.43.39,5.99-.22,9.18-3.92,3.76-10.17,5.65-20.6,5.11-4.32-.22-10.07-2.25-14.06-6.66-.48-8.09,1.79-11.9,2.31-13.77ZM57.06,42.17c-.6,2.57-1.39,4.89-2.47,6.92-.92-7.91-.39-3.25-1.57-10.13-.65-3.77-2.27-7.22-5.14-9.96-3.27-3.11-11.24-4.06-15.42-4.06s-4.92,1.09-8.46,3.46c-4.92,3.18-6.46,5.92-8.01,11.56-.09.46-.69,3.1-.73,3.37-.54,3.67-.59,3.79-.75,5.03-1.68-3.02-2.61-6.8-2.27-11.44.36-4.81-.94-8.92,6.41-18.19,1.93-2.43,7.12-6.67,14.67-6.67,10.34,0,15.42,2.8,18.29,4.9,10.52,7.72,6.02,22.83,5.47,25.2Z"/>
</svg>