<?xml version="1.0" encoding="UTF-8"?>
<svg id="Layer_1" data-name="Layer 1" xmlns="http://www.w3.org/2000/svg" viewBox="0 0 70 70">
  <defs>
    <style>
      .cls-1 {
        fill: #0f1027;
      }
    </style>
  </defs>
  <path class="cls-1" d="M66.03,14.9C54.64.88,43.32,0,32.53,0S12.78,5.27,6.14,13.53C1.49,19.31,0,29.88,0,37.15c0,16.36,8.3,28.75,24.89,31.88.83.17,1.66.33,2.49.33,10.95,0,22.36,1.1,31.12-6.4,6.8-5.83,8.04-12.4,10.3-20,1.82-6.13.71-23.28-2.78-28.07ZM63.79,44.2c-1.26,5.37-2.27,8.9-5.35,12.4l-.9.99c-.08.13-.26.35-.35.48-.81,1.15-1.85,1.9-2.95,2.37l-.73.51c-5.24,3.86-12.14,5.23-24.29,4.6-5.24-.27-11.15-1.7-16.32-6.58l-.7-.62c-.14-.09-.4-.37-.54-.47-1.35-.96-2-1.76-2.67-3.05l-.28-.5c-2.96-4.28-4.74-9.89-4.21-17.07.47-6.36-1.25-11.79,8.47-24.05,2.55-3.21,9.41-8.82,19.4-8.82,13.67,0,20.39,3.7,24.19,6.48,13.92,10.22,7.97,30.2,7.23,33.33Z"/>
  <circle class="cls-1" cx="34.84" cy="34.71" r="33.33"/>
</svg>