<?xml version="1.0" encoding="UTF-8"?>
<svg id="Layer_1" data-name="Layer 1" xmlns="http://www.w3.org/2000/svg" viewBox="0 0 70 70">
  <defs>
    <style>
      .cls-1 {
        fill: #0f1027;
      }
    </style>
  </defs>
  <path class="cls-1" d="M45.9,33.95c0-.21,0-.44-.13-.8-1.72-2.95-5.02-5.79-7.79-8.6-.9-.96-2.44-2.82-3.35-3.51-.25-.23-.75-.42-1.56-.51-.5-.05-1.03.42-1.63.78-2.07,1.38-3.26,3.71-4,5.94-.71,2.13-3.04,4.05-3.24,6.21h-.01c-.46,4.72-.37,2.48-.2,7.85.05,1.65,0,3.3.05,4.99.1,3.03,0,2.31,2.51,2.61q.46.01.97.02c6.96.26,6.46-.25,14.14.13,2.15.11.86.04,2.4.2.02,0,.03.01.05.02.03,0,.08,0,.12,0,.09,0,.16.02.27.03l.08-.02c.65-.07,1.39-.47,1.46-1.28.29-3.23-.15-10.81-.15-14.05ZM39.6,44.59c-4.22-.21-7.32-.15-11.06-.25-.12,0-.22-.11-.22-.23-.06-3.96.18-5.4.21-8.72,0-.05.02-.1.05-.14,1.43-1.97,1.78-3.84,2.85-6.08.27-.64.42-1.58,1.07-2.04.14-.1,1.11-.54,2.13.34,1.38,1.38,2.76,2.66,4.09,4.04.64.64,1.17,1.43,1.81,2.02.27.21.53.43.74.69.36.38.69.78,1.07,1.17l.02.08c0,2.22.08,9.1-.25,9.24-.09.1-1.18-.04-2.51-.11Z"/>
  <rect class="cls-1" x="27.71" y="30.42" width="15.33" height="15.33"/>
  <rect class="cls-1" x="27.29" y="26.93" width="14.19" height="13.62" transform="translate(31.74 -14.36) rotate(42.39)"/>
</svg>