<?xml version="1.0" encoding="UTF-8"?>
<svg id="Layer_1" data-name="Layer 1" xmlns="http://www.w3.org/2000/svg" viewBox="0 0 70 70">
  <defs>
    <style>
      .cls-1 {
        fill: #0f1027;
      }
    </style>
  </defs>
  <path class="cls-1" d="M44.02,18.12c-3.3-.42-6.15,2.46-8.97,4.27-2.74-1.46-6.36-4.03-9.39-3.52-6.79,1.13-8.94,7.06-7.91,13.22,1.75,10.48,8.06,9.66,12.5,13.87.89.84,3.53,2.64,4.8,2.43.39-.07-.32.18,0,0,1.1.02,3.52-1.63,4.38-2.34,3.48-2.87,11.68-4.49,13.02-15.02.79-6.2-1.59-12.03-8.43-12.89ZM46.44,30.61c-.6,4.75-4.76,6.91-8.14,9.37-.54.4-2.71,2.22-3.26,2.77-.44-.37-3.17-3.01-3.59-3.29-3.47-2.32-6.94-3.29-7.73-8.02-.35-2.07.28-4.37,1.88-5.76.5-.2,1.01-.35,1.58-.44,1.86-.31,3.32.12,4.55.71,1.02.33,1.08.78,2.15,1.47.09.06.5.56.85.95.3.34.83.37,1.17.07s.66-.7,1-.94c0,0,1.25-1.42,2.19-2.48,1.13-.55,1.94-.68,3.64-.47.58.07,1.09.2,1.6.38,1.65,1.33,2.37,3.59,2.1,5.68Z"/>
  <rect class="cls-1" x="20.51" y="23.93" width="27.22" height="14.16"/>
  <rect class="cls-1" x="31.8" y="25.5" width="12.44" height="18.82" rx="4.54" ry="4.54" transform="translate(35.82 -16.66) rotate(45)"/>
  <rect class="cls-1" x="33.82" y="35" width="1.18" height=".83"/>
</svg>