<?xml version="1.0" encoding="UTF-8"?>
<svg id="Layer_1" data-name="Layer 1" xmlns="http://www.w3.org/2000/svg" viewBox="0 0 70 70">
  <defs>
    <style>
      .cls-1 {
        fill: #0f1027;
      }

      .cls-2 {
        fill: #fff;
      }
    </style>
  </defs>
  <g>
    <path class="cls-1" d="M27.75,43.25s-.82.1-.91.07c-1.14-.16-1.77-.82-1.82-1.71-.02-.27.12-1.01.24-1.25.2-.44.52-.52,1.56-.66,2.12.18,2.12.73,2.19,1.88.03.42-.13.82-.38,1.14-.33.3-.47.49-.87.52Z"/>
    <path class="cls-2" d="M24.24,42.03c-.03-.41-.03-1.41.25-1.83.22-.33,1.23-.92,1.62-.97.67-.07,1.86-.06,2.56.47.58.44.81,1.05.92,2.16v.04c-.06.53-.19.91-.48,1.29l-.51.58c-.5.44-1.02.5-1.41.53-1.54.1-2.85-.74-2.95-2.26ZM25.26,41.4l.03.39c.02.32.28.84.51,1.02.28.23.8.44,1.16.41.61-.04,1.23.07,1.59-.95.06-.17,0-1.03-.17-1.37-.15-.35-.39-.52-.49-.59-.64-.34-1.47-.46-1.99-.23s-.68.64-.64,1.32ZM26.3,41.25s-.16.02-.18.01c-.22-.04-.34-.18-.35-.37,0-.06.02-.22.04-.27.04-.09.1-.11.3-.14.41.04.41.16.42.4,0,.09-.02.17-.07.24-.06.06-.09.1-.17.11Z"/>
  </g>
  <g>
    <path class="cls-1" d="M40.56,43.08s-.82.1-.91.07c-1.14-.16-1.77-.82-1.82-1.71-.02-.27.12-1.01.24-1.25.2-.44.52-.52,1.56-.66,2.12.18,2.12.73,2.19,1.88.03.42-.13.82-.38,1.14-.33.3-.47.49-.87.52Z"/>
    <path class="cls-2" d="M37.05,41.87c-.03-.41-.03-1.41.25-1.83.22-.33,1.23-.92,1.62-.97.67-.07,1.86-.06,2.56.47.58.44.81,1.05.92,2.16v.04c-.06.53-.19.91-.48,1.29l-.51.58c-.5.44-1.02.5-1.41.53-1.54.1-2.85-.74-2.95-2.26ZM38.07,41.23l.03.39c.02.32.28.84.51,1.02.28.23.8.44,1.16.41.61-.04,1.23.07,1.59-.95.06-.17,0-1.03-.17-1.37-.15-.35-.39-.52-.49-.59-.64-.34-1.47-.46-1.99-.23s-.68.64-.64,1.32ZM39.11,41.08s-.16.02-.18.01c-.22-.04-.34-.18-.35-.37,0-.06.02-.22.04-.27.04-.09.1-.11.3-.14.41.04.41.16.42.4,0,.09-.02.17-.07.24-.06.06-.09.1-.17.11Z"/>
  </g>
  <g>
    <path class="cls-1" d="M34.03,38.26s-.82.1-.91.07c-1.14-.16-1.77-.82-1.82-1.71-.02-.27.12-1.01.24-1.25.2-.44.52-.52,1.56-.66,2.12.18,2.12.73,2.19,1.88.03.42-.13.82-.38,1.14-.33.3-.47.49-.87.52Z"/>
    <path class="cls-2" d="M30.53,37.04c-.03-.41-.03-1.41.25-1.83.22-.33,1.23-.92,1.62-.97.67-.07,1.86-.06,2.56.47.58.44.81,1.05.92,2.16v.04c-.06.53-.19.91-.48,1.29l-.51.58c-.5.44-1.02.5-1.41.53-1.54.1-2.85-.74-2.95-2.26ZM31.55,36.41l.03.39c.02.32.28.84.51,1.02.28.23.8.44,1.16.41.61-.04,1.23.07,1.59-.95.06-.17,0-1.03-.17-1.37-.15-.35-.39-.52-.49-.59-.64-.34-1.47-.46-1.99-.23s-.68.64-.64,1.32ZM32.58,36.25s-.16.02-.18.01c-.22-.04-.34-.18-.35-.37,0-.06.02-.22.04-.27.04-.09.1-.11.3-.14.41.04.41.16.42.4,0,.09-.02.17-.07.24-.06.06-.09.1-.17.11Z"/>
  </g>
</svg>