<?xml version="1.0" encoding="UTF-8"?>
<svg id="Layer_1" data-name="Layer 1" xmlns="http://www.w3.org/2000/svg" viewBox="0 0 70 70">
  <defs>
    <style>
      .cls-1 {
        fill: #0f1027;
      }

      .cls-2 {
        fill: #fff;
      }
    </style>
  </defs>
  <path class="cls-1" d="M34.75,41.98c-.06,0-1.08.14-1.2.09-1.5-.21-2.33-1.08-2.4-2.25-.02-.35.15-1.33.31-1.65.26-.58.68-.69,2.06-.87,2.79.23,2.79.96,2.89,2.48.04.56-.17,1.08-.5,1.51-.43.4-.62.65-1.15.68Z"/>
  <path class="cls-2" d="M30.12,40.37c-.04-.54-.04-1.86.33-2.41.29-.44,1.62-1.22,2.13-1.27.88-.1,2.45-.09,3.38.62.76.58,1.07,1.38,1.22,2.84v.05c-.07.69-.25,1.19-.64,1.7l-.67.76c-.66.58-1.34.66-1.86.7-2.03.13-3.76-.97-3.89-2.98ZM31.47,39.54l.03.51c.03.42.37,1.1.67,1.34.37.3,1.06.58,1.52.55.8-.05,1.62.09,2.1-1.25.08-.23,0-1.36-.22-1.81-.2-.46-.51-.68-.64-.78-.84-.44-1.94-.61-2.62-.3s-.9.85-.84,1.74ZM32.83,39.34s-.21.03-.23.02c-.29-.05-.45-.23-.46-.48,0-.08.03-.28.06-.35.05-.12.13-.15.39-.18.54.05.54.21.56.53,0,.12-.03.23-.09.32-.08.08-.12.14-.22.14Z"/>
</svg>