<?xml version="1.0" encoding="UTF-8"?>
<svg id="Layer_1" data-name="Layer 1" xmlns="http://www.w3.org/2000/svg" viewBox="0 0 70 70">
  <defs>
    <style>
      .cls-1 {
        fill: #0f1027;
      }
    </style>
  </defs>
  <path class="cls-1" d="M44.63,44.68c0-4.67-.05-9.33-.29-13.98-.07-1.32-.27-5.18-.62-6.27-.12-.42-.88-1.06-1.27-1.19-1.12-.25-3.61-.43-5.66-.5-.29-.08-.61-.13-.96-.14-1.74-.04-6.49.36-8.15.8-.39.15-1.13.82-1.24,1.24-.31,1.1-.4,4.97-.42,6.29-.1,4.66,0,9.32.14,13.98.06,1.64-.34,4.65,1.09,5.69.43.33,1.39.46,1.88.47,1.55.04,1.54.16,3.05-.07.41-.05.8-.14,2.77-.14,1.5.15,3.02.05,3.65.11,1.51.17,1.73.07,3.28-.03.48-.03,1.44-.2,1.86-.54,1.4-1.09.9-4.09.91-5.73ZM29,27.59c.04-.39-.17-.92.22-1.21,1.17-.5,2.48-.35,3.74-.51,1.55.06,6.72-.49,7.46,0,.25.37.11,1.19.19,1.59l.12,1.94c.06,1.16.06,1.51.12,2.67.05.95.25,2.2.05,3.14-.43.38-1.91.23-2.21.24-1.21.04-1.73-.25-2.94-.18-.14,0-.34,0-.78-.01-.6-.02-1.26.02-1.56.02-1.21-.03-2.16-.06-3.37,0-.12,0-.63.07-.76-.04-.32-.31-.09-1.83-.07-2.78.02-1.17-.22-2.79-.19-3.96l-.03-.9ZM34.14,47.92c-.34.04-2.93.12-4.13-.09-.34-.06-.6-.33-.66-.67-.57-3.42-.29-3.2-.2-6.75.02-.62.27-2.24.87-2.38.79-.18,2.27.14,4.72.01,2.77,0,4.07-.15,6.28.52.14.04.26.19.27.33.04,2.16-.04,6.48-.3,8.59-.17.62-1.89.53-2.26.5"/>
</svg>