<?xml version="1.0" encoding="UTF-8"?>
<svg id="Layer_1" data-name="Layer 1" xmlns="http://www.w3.org/2000/svg" viewBox="0 0 70 70">
  <defs>
    <style>
      .cls-1 {
        fill: #0f1027;
      }

      .cls-2 {
        fill: #adff1d;
      }
    </style>
  </defs>
  <path class="cls-2" d="M50.98,47.84c1.84,12.03-7.47,12.67-17.3,12.67s-19.8-3.78-17.2-13.25c5.65-20.57,7.23-15.11,16.37-18.72,9.37-3.7,16.55,9.05,18.12,19.3Z"/>
  <path class="cls-1" d="M58.58,20.02c-8.61-10.6-17.17-11.26-25.33-11.26s-14.93,3.98-19.95,10.23c-3.51,4.37-4.64,12.36-4.64,17.86,0,12.37,6.27,21.73,18.82,24.11.63.13,1.26.25,1.88.25,8.28,0,16.91.83,23.53-4.84,5.14-4.41,6.08-9.37,7.79-15.12,1.38-4.64.54-17.61-2.1-21.23ZM18.06,44.1c.34-2.98,2.52-7.95,3.94-9.41,2.89-4.15,8.4-5.42,10.07-5.57,7.11-.65,13.36,1.81,14.71,7.23.62,2.51,2.96,12.64,3.08,18.11-3.96,2.92-9.91,4.33-19.11,3.85-3.96-.21-9.13-1.93-13.04-5.62-.54-1.84-.29-3.5.34-8.59ZM56.9,42.17c-.95,4.06-2.34,7.49-4.67,10.13-.47-3.01-1.25-8.36-2.3-12.74-.43-1.79-1.1-3.52-1.99-5.13l-1.67-3.03c-.92-1.16-2.01-2.17-3.27-2.96-1.21-.76-1.68-.69-4.99-1.26-1.51-.26-3.05-.25-4.55.03l-.18.03c-1.62.3-5.18.64-6.62,1.44-4.48,2.47-7.23,3.51-8.84,9.12-1.53,5.37-2.79,8.38-2.57,12.01-2.24-3.23-3.59-7.48-3.19-12.9.36-4.81-.94-8.92,6.41-18.19,1.93-2.43,7.12-6.67,14.67-6.67,10.34,0,15.42,2.79,18.29,4.9,10.52,7.72,6.02,22.83,5.47,25.2Z"/>
</svg>