<?xml version="1.0" encoding="UTF-8"?>
<svg id="Layer_1" data-name="Layer 1" xmlns="http://www.w3.org/2000/svg" viewBox="0 0 70 70">
  <defs>
    <style>
      .cls-1 {
        fill: #0f1027;
      }

      .cls-2 {
        fill: #ffa631;
      }
    </style>
  </defs>
  <path class="cls-2" d="M53.37,44.64c1.66,12.77-8.15,16.22-18.21,16.22s-19.69-3.45-18.21-16.22c1.16-9.99,8.15-18.21,18.21-18.21s16.92,8.24,18.21,18.21Z"/>
  <path class="cls-1" d="M58.58,20.49c-8.61-10.6-17.17-11.26-25.33-11.26s-14.93,3.98-19.95,10.23c-3.51,4.37-4.64,12.36-4.64,17.86,0,12.37,6.27,21.73,18.82,24.11.63.13,1.26.25,1.88.25,8.28,0,16.91.83,23.53-4.84,5.14-4.41,6.08-9.37,7.79-15.12,1.38-4.64.54-17.61-2.1-21.23ZM18.15,48.42c0-7.2,1.32-11.86,3.9-15.55,1.37-1.96,8.38-5.36,10.94-5.36,7.97,0,12.39,2.63,14.06,4.74,1.13,1.44,3.69,6.33,4.48,12.74.58,4.73.33,7.4-.61,9.09-3.94,3.49-10.12,5.23-20.17,4.71-3.09-.16-6.92-1.24-10.31-3.46-.97-2.24-2.3-5.69-2.3-6.91ZM56.9,42.64c-.57,2.42-1.29,4.61-2.28,6.55-.28-5.21-1.9-16.57-7.27-19.69-3.7-2.15-8-4.15-12.38-4h-.6c-4.98.08-12.55,2.87-15.12,7.18-2.04,3.55-3.56,10.59-3.56,14.59,0,1.46.08,2.79.32,4.04-2.68-3.34-4.38-7.91-3.94-13.92.36-4.81-.94-8.92,6.41-18.19,1.93-2.43,7.12-6.67,14.67-6.67,10.34,0,15.42,2.8,18.29,4.9,10.52,7.72,6.02,22.83,5.47,25.2Z"/>
</svg>