<?xml version="1.0" encoding="UTF-8"?>
<svg id="Layer_1" data-name="Layer 1" xmlns="http://www.w3.org/2000/svg" viewBox="0 0 70 70">
  <defs>
    <style>
      .cls-1 {
        fill: #0f1027;
      }
    </style>
  </defs>
  <path class="cls-1" d="M64.63,33.87c-.28-.07-.56-.1-.85-.1h-.43c-.22.01-.44-.04-.65-.04-.29,0-.6.04-.89.05-.62.04-1.26.05-1.89.05-.98,0-2.01,0-2.99-.05-.15-.01-.28-.02-.43-.02-.58,0-1.14.11-1.72.11-.21,0-.73,0-.93-.04-.28-.19-6.47-.06-8.53-.03-.28-.01-.65-.04-.94-.01-2.02.01-3.95.02-5.96-.02-.09,0-1.05-.02-1.12-.02-.07,0,.02,0-.07,0-.04,0,0,0-.06,0-.05,0-.1,0-.38.02-.62.01-.65.04-1.26.04-.93,0-1.68-.09-2.6-.09-.16,0-.31.02-.45.02-.37,0-.43.07-.8.07-.03,0-.06,0-.09,0-.02,0-.04,0-.06,0-.05-.01-.1-.02-.16-.02-.4.01-.81.05-1.22.05-.76.03-1.51.04-2.26.02-.62,0-1.24-.02-1.86-.05-.3,0-.6-.03-.9-.03,0,0,0,0,0,0-.07,0-.14,0-.21,0-.12,0-.3-.02-.4,0-1.46-.02-3.01-.01-4.43.04-.77.03-1.56.11-2.32.12-.44,0-1.44-.17-1.89-.09-.33,0-1.26-.03-1.59-.03h-.07c-1.52-.04-3.04-.09-4.56-.09s-2.9.01-4.36.04c-.17.11-.34.27-.34.49,0,.26.1.42.26.6.28.07.56.1.85.1h.43c.22-.01.44.04.65.04.29,0,.6-.04.89-.05.62-.04,1.26-.05,1.89-.05.98,0,2.01,0,2.99.05.15.01.28.02.43.02.58,0,1.14-.11,1.72-.11.21,0,.73,0,.93.04.28.19,6.47.06,8.53.03.28.01.65.04.94.01,2.02-.01,3.95-.02,5.96.02.09,0,1.05.02,1.12.02.07,0-.02,0,.07,0,.04,0,0,0,.06,0,.05,0,.1,0,.38-.02.62-.01.65-.04,1.26-.04.93,0,1.68.09,2.6.09.16,0,.31-.02.45-.02.37,0,.43-.07.8-.07.03,0,.06,0,.09,0,.02,0,.04,0,.06,0,.05.01.1.02.16.02.4-.01.81-.05,1.22-.05.76-.03,1.51-.04,2.26-.02.62,0,1.24.02,1.86.05.3,0,.6.03.9.03,0,0,0,0,0,0,.07,0,.14,0,.21,0,.12,0,.3.02.4,0,1.46.02,3.01.01,4.43-.04.77-.03,1.56-.11,2.32-.12.44,0,1.44.17,1.89.09.33,0,1.26.03,1.59.03h.07c1.52.04,3.04.09,4.56.09s2.9-.01,4.36-.04c.17-.11.34-.27.34-.49,0-.26-.1-.42-.26-.6Z"/>
</svg>