<?xml version="1.0" encoding="UTF-8"?>
<svg id="Layer_1" data-name="Layer 1" xmlns="http://www.w3.org/2000/svg" viewBox="0 0 70 70">
  <defs>
    <style>
      .cls-1 {
        fill: #0f1027;
      }

      .cls-2 {
        fill: #fff;
      }
    </style>
  </defs>
  <path class="cls-2" d="M30.65,51.27c.02-.06.02-.3.04-.38.03-.12.16-.02.28,0,.86.18.26.05,1.29.19.25.03.49.06.74.09.18.02.49-.04.49.14,0,.17-.08.49-.11.66,0,.04,0,.09-.02.13-.07.32-.33.87-.61,1.04-.07.04-.12.05-.2.06-.21.05-.38.07-.59.05-.4-.05-.88-.18-1.15-.48-.16-.18-.22-.31-.28-.55-.03-.11-.03-.11,0-.33.01-.22.06-.33.06-.4"/>
  <path class="cls-2" d="M33.92,51.71c-.05-.25-.07-.28-.07-.35,0-.12.14-.08.26-.09.87-.07.26-.02,1.29-.18.25-.04.49-.08.74-.12.18-.03.67-.41.62.2-.01.15.03.32,0,.47,0,0,0,.2,0,.24.02.32-.08.81-.3,1.05-.05.06-.1.08-.17.12-.18.1-.34.18-.56.21-.4.06-.89.08-1.24-.14-.2-.13-.3-.24-.43-.45-.06-.09-.06-.1-.1-.32-.05-.21-.03-.33-.05-.4"/>
  <path class="cls-1" d="M28,47.45c.54.81,1.29,1.47,2.17,1.86,1.18.52,2.53.84,3.67.84,1.03,0,2.45-.27,3.3-.9.6-.48,1.26-.68,1.65-1.67.05-.15.64-1.15.69-1.27.08-.23.53-.56.76-.56.45,0,.57.46.47.9-.48,2.14-2,3.34-3.48,4.09-.88.45-3.04.72-4.04.61-3.37-.35-3.11-.66-4.85-1.43-.27-.12-.52-.27-.75-.45-.65-.52-1.24-1.16-1.66-2.08-.33-.87.35-1.87.83-1.39.8.78.84.85,1.24,1.46Z"/>
</svg>