<?xml version="1.0" encoding="UTF-8"?>
<svg id="Layer_1" data-name="Layer 1" xmlns="http://www.w3.org/2000/svg" viewBox="0 0 70 70">
  <defs>
    <style>
      .cls-1 {
        fill: #b1cfe8;
      }

      .cls-2 {
        fill: #0f1027;
      }
    </style>
  </defs>
  <rect class="cls-1" width="70" height="70"/>
  <path class="cls-2" d="M17.94,28.46c-.39-1.18-.72-2.43-.72-3.67,0-.66.13-1.57.46-2.16.72-1.05,2.56-2.1,3.8-2.1,2.16,0,4.72,2.1,5.58,4,.2.46.33,1.38.33,1.9,0,2.23-1.18,4.53-3.35,5.31-2.43-.53-5.18-.46-6.1-3.28Z"/>
  <path class="cls-2" d="M49.76,32.27c-3.35,0-6.1-1.31-6.1-5.05,0-.59.07-2.16.26-2.69.39-1.18,1.97-1.97,3.15-1.97,3.87,0,6.23,1.77,6.23,5.84,0,1.9-.85,2.56-2.16,3.8-.46.07-.92.07-1.38.07Z"/>
  <path class="cls-2" d="M17.03,47.75c-1.12-1.05-2.43-2.43-2.43-4.13,0-1.44,1.05-2.62,2.49-2.62,1.77,0,3.61,2.62,4.79,3.74.59.53,1.05.79,1.7,1.18,3.68,2.1,6.5,2.95,10.76,2.95,4.72,0,9.45-1.25,13.32-3.87,1.64-1.18,2.95-4.53,4.92-4.53,1.77,0,2.43,1.64,2.82,3.08-.72,4-4.99,7.08-8.4,8.66-3.61,1.71-7.61,2.43-11.61,2.43-6.63,0-13.51-2.16-18.37-6.89Z"/>
</svg>