<svg xmlns="http://www.w3.org/2000/svg" viewBox="0 0 70 70">
  <defs>
    <style>
      .fl1 { fill: #6675d3; }
      .fl2 { fill: #0f1027; }
      .fl3 { fill: #fff; }
      .fd1 { fill: #313877; }
      .fd2 { fill: #0f1027; }
      .fd3 { fill: #fff; }
      .favicon-light-art { display: block; }
      .favicon-dark-art { display: none; }
      @media (prefers-color-scheme: dark) {
        .favicon-light-art { display: none; }
        .favicon-dark-art { display: block; }
      }
    </style>
  </defs>
  <g class="favicon-light-art">
    <rect class="fl1" x="-.15" width="70" height="70"/>
    <g>
      <path class="fl2" d="M23.36,28.41c-.12,0-2.16.27-2.41.19-3.01-.42-4.67-2.17-4.82-4.51-.05-.71.3-2.67.62-3.3.52-1.15,1.37-1.39,4.13-1.74,5.59.46,5.6,1.92,5.8,4.97.07,1.12-.34,2.16-1,3.02-.86.79-1.23,1.3-2.31,1.37Z"/>
      <path class="fl3" d="M14.09,25.2c-.07-1.09-.08-3.73.65-4.84.58-.88,3.25-2.44,4.27-2.55,1.77-.19,4.91-.17,6.77,1.24,1.53,1.16,2.14,2.77,2.44,5.69v.1c-.15,1.39-.49,2.39-1.28,3.41l-1.34,1.53c-1.32,1.17-2.7,1.33-3.72,1.4-4.07.27-7.54-1.94-7.8-5.98ZM16.78,23.52l.07,1.03c.05.83.74,2.21,1.35,2.68.75.6,2.13,1.15,3.06,1.09,1.6-.1,3.26.19,4.21-2.5.16-.45,0-2.72-.45-3.63-.4-.92-1.02-1.37-1.29-1.56-1.69-.89-3.89-1.22-5.25-.6-1.35.6-1.81,1.7-1.69,3.5ZM19.52,23.11s-.41.06-.46.04c-.58-.09-.9-.47-.93-.97,0-.15.05-.57.11-.7.1-.25.26-.29.79-.37,1.07.11,1.08.42,1.12,1.07.02.24-.06.46-.19.64-.16.17-.23.28-.44.29Z"/>
    </g>
    <g>
      <path class="fl2" d="M50.79,30.12c-.17.01-3.1.39-3.46.27-4.3-.61-6.68-3.1-6.9-6.45-.07-1.02.44-3.82.89-4.73.75-1.65,1.97-1.99,5.91-2.5,8.01.67,8.02,2.75,8.3,7.12.1,1.6-.48,3.1-1.44,4.32-1.23,1.14-1.77,1.86-3.3,1.96Z"/>
      <path class="fl3" d="M37.52,25.52c-.1-1.56-.12-5.33.94-6.93.83-1.26,4.65-3.5,6.11-3.65,2.54-.27,7.03-.24,9.7,1.78,2.19,1.66,3.07,3.96,3.49,8.15v.14c-.21,1.99-.71,3.43-1.83,4.89l-1.91,2.19c-1.89,1.67-3.86,1.91-5.33,2-5.83.38-10.79-2.78-11.17-8.56ZM41.37,23.12l.1,1.47c.08,1.19,1.06,3.16,1.93,3.84,1.07.85,3.04,1.65,4.38,1.57,2.29-.15,4.66.27,6.03-3.59.23-.65,0-3.9-.64-5.2-.58-1.31-1.46-1.96-1.85-2.23-2.42-1.27-5.57-1.74-7.52-.87-1.93.87-2.59,2.44-2.42,5.01ZM45.29,22.53s-.59.08-.66.05c-.83-.14-1.29-.67-1.33-1.39-.01-.22.08-.81.16-1.01.14-.35.37-.42,1.13-.52,1.54.15,1.54.6,1.6,1.53.02.34-.09.66-.27.92-.23.24-.34.39-.63.41Z"/>
    </g>
    <g>
      <path class="fl3" d="M24.19,52.33h0s.03.02.03.02c.05.04.09.08.15.1.09.04.19.05.29.05l3.37,1.19s.08.06.12.07c.13.05.25.08.37.1.28-.05.6-.17.78-.4.53-2.05.81-4.15,1.22-6.22.06-.31.09-.72.07-1.09,0-.33.04-.78-.07-1.08-.08-.23-.65.2-1.03.62-.58.66-1.07,1.39-1.66,2.01-.8.84-1.6,1.67-2.44,2.47-.44.41-.9.8-1.33,1.22-.02.02-.07.09-.08.13-.11.28,0,.62.22.81Z"/>
      <path class="fl3" d="M17.52,47.03h0s.03.03.03.03c.04.05.07.1.12.14.08.06.17.1.26.14l2.88,2.13s.06.08.09.1c.11.09.21.15.32.2.28.03.63.02.86-.16,1.11-1.8,1.99-3.73,2.99-5.59.15-.28.3-.66.38-1.02.1-.31.26-.73.25-1.06-.01-.24-.68,0-1.16.29-.75.46-1.43,1.01-2.17,1.43-1.02.57-2.03,1.13-3.06,1.65-.54.26-1.1.5-1.63.77-.03.01-.09.06-.12.1-.19.24-.19.59-.03.84Z"/>
      <path class="fl3" d="M33.67,56.09h0s.03,0,.03,0c.06,0,.12.02.18.01.1-.01.19-.05.28-.1l3.52-.61s.09.01.14,0c.14-.02.25-.05.37-.09.22-.18.45-.44.48-.73-.54-2.05-1.33-4.02-1.98-6.02-.1-.3-.27-.67-.47-.98-.16-.29-.35-.7-.59-.91-.18-.16-.47.5-.59,1.04-.19.86-.75,2.07-.96,2.9-.29,1.13-.66,2.14-1,3.25-.18.57.18.91.01,1.48-.01.03-.02.11,0,.15.04.3.29.54.59.6Z"/>
      <path class="fl3" d="M47.05,52.7h0s-.03.02-.03.02c-.05.04-.09.08-.15.1-.09.04-.19.05-.29.05l-3.37,1.19s-.08.06-.12.07c-.13.05-.25.08-.37.1-.28-.05-.6-.17-.78-.4-.53-2.05-.81-4.15-1.22-6.22-.06-.31-.09-.72-.07-1.09,0-.33-.04-.78.07-1.08.08-.23.65.2,1.03.62.58.66,1.07,1.39,1.66,2.01.8.84,1.6,1.67,2.44,2.47.44.41.9.8,1.33,1.22.02.02.07.09.08.13.11.28,0,.62-.22.81Z"/>
      <path class="fl3" d="M53.72,47.4h0s-.03.03-.03.03c-.04.05-.07.1-.12.14-.08.06-.17.1-.26.14l-2.88,2.13s-.06.08-.09.1c-.11.09-.21.15-.32.2-.28.03-.63.02-.86-.16-1.11-1.8-1.99-3.73-2.99-5.59-.15-.28-.3-.66-.38-1.02-.1-.31-.26-.73-.25-1.06.01-.24.68,0,1.16.29.75.46,1.43,1.01,2.17,1.43,1.02.57,2.03,1.13,3.06,1.65.54.26,1.1.5,1.63.77.03.01.09.06.12.1.19.24.19.59.03.84Z"/>
      <path class="fl2" d="M16.55,43.67c1.87,2.79,4.45,5.07,7.52,6.43,4.07,1.8,8.75,2.92,12.7,2.92,3.57,0,8.47-.93,11.43-3.11,2.09-1.66,4.35-2.37,5.71-5.79.18-.52,2.22-3.98,2.39-4.41.26-.79,1.84-1.95,2.62-1.95,1.57,0,1.96,1.58,1.61,3.11-1.68,7.39-6.91,11.55-12.05,14.16-3.04,1.57-10.51,2.47-13.97,2.11-11.67-1.22-10.76-2.27-16.78-4.94-.92-.41-1.81-.92-2.59-1.56-2.25-1.81-4.3-4.01-5.76-7.19-1.14-3.02,1.21-6.46,2.88-4.82,2.75,2.7,2.89,2.94,4.3,5.05Z"/>
    </g>
  </g>
  <g class="favicon-dark-art">
    <rect class="fd1" x="-.15" width="70" height="70"/>
    <g>
      <path class="fd2" d="M23.5,27.41c-.12,0-2.16.27-2.41.19-3.01-.42-4.67-2.17-4.82-4.51-.05-.71.3-2.67.62-3.3.52-1.15,1.37-1.39,4.13-1.74,5.59.46,5.6,1.92,5.8,4.97.07,1.12-.34,2.16-1,3.02-.86.79-1.23,1.3-2.31,1.37Z"/>
      <path class="fd3" d="M14.24,24.19c-.07-1.09-.08-3.73.65-4.84.58-.88,3.25-2.44,4.27-2.55,1.77-.19,4.91-.17,6.77,1.24,1.53,1.16,2.14,2.77,2.44,5.69v.1c-.15,1.39-.49,2.39-1.28,3.41l-1.34,1.53c-1.32,1.17-2.7,1.33-3.72,1.4-4.07.27-7.54-1.94-7.8-5.98ZM16.93,22.52l.07,1.03c.05.83.74,2.21,1.35,2.68.75.6,2.13,1.15,3.06,1.09,1.6-.1,3.26.19,4.21-2.5.16-.45,0-2.72-.45-3.63-.4-.92-1.02-1.37-1.29-1.56-1.69-.89-3.89-1.22-5.25-.6-1.35.6-1.81,1.7-1.69,3.5ZM19.67,22.11s-.41.06-.46.04c-.58-.09-.9-.47-.93-.97,0-.15.05-.57.11-.7.1-.25.26-.29.79-.37,1.07.11,1.08.42,1.12,1.07.02.24-.06.46-.19.64-.16.17-.23.28-.44.29Z"/>
    </g>
    <g>
      <path class="fd2" d="M50.93,29.12c-.17.01-3.1.39-3.46.27-4.3-.61-6.68-3.1-6.9-6.45-.07-1.02.44-3.82.89-4.73.75-1.65,1.97-1.99,5.91-2.5,8.01.67,8.02,2.75,8.3,7.12.1,1.6-.48,3.1-1.44,4.32-1.23,1.14-1.77,1.86-3.3,1.96Z"/>
      <path class="fd3" d="M37.66,24.51c-.1-1.56-.12-5.33.94-6.93.83-1.26,4.65-3.5,6.11-3.65,2.54-.27,7.03-.24,9.7,1.78,2.19,1.66,3.07,3.96,3.49,8.15v.14c-.21,1.99-.71,3.43-1.83,4.89l-1.91,2.19c-1.89,1.67-3.86,1.91-5.33,2-5.83.38-10.79-2.78-11.17-8.56ZM41.52,22.11l.1,1.47c.08,1.19,1.06,3.16,1.93,3.84,1.07.85,3.04,1.65,4.38,1.57,2.29-.15,4.66.27,6.03-3.59.23-.65,0-3.9-.64-5.2-.58-1.31-1.46-1.96-1.85-2.23-2.42-1.27-5.57-1.74-7.52-.87-1.93.87-2.59,2.44-2.42,5.01ZM45.44,21.53s-.59.08-.66.05c-.83-.14-1.29-.67-1.33-1.39-.01-.22.08-.81.16-1.01.14-.35.37-.42,1.13-.52,1.54.15,1.54.6,1.6,1.53.02.34-.09.66-.27.92-.23.24-.34.39-.63.41Z"/>
    </g>
    <g>
      <path class="fd3" d="M24.34,51.32h0s.03.02.03.02c.05.04.09.08.15.1.09.04.19.05.29.05l3.37,1.19s.08.06.12.07c.13.05.25.08.37.1.28-.05.6-.17.78-.4.53-2.05.81-4.15,1.22-6.22.06-.31.09-.72.07-1.09,0-.33.04-.78-.07-1.08-.08-.23-.65.2-1.03.62-.58.66-1.07,1.39-1.66,2.01-.8.84-1.6,1.67-2.44,2.47-.44.41-.9.8-1.33,1.22-.02.02-.07.09-.08.13-.11.28,0,.62.22.81Z"/>
      <path class="fd3" d="M17.67,46.02h0s.03.03.03.03c.04.05.07.1.12.14.08.06.17.1.26.14l2.88,2.13s.06.08.09.1c.11.09.21.15.32.2.28.03.63.02.86-.16,1.11-1.8,1.99-3.73,2.99-5.59.15-.28.3-.66.38-1.02.1-.31.26-.73.25-1.06-.01-.24-.68,0-1.16.29-.75.46-1.43,1.01-2.17,1.43-1.02.57-2.03,1.13-3.06,1.65-.54.26-1.1.5-1.63.77-.03.01-.09.06-.12.1-.19.24-.19.59-.03.84Z"/>
      <path class="fd3" d="M33.82,55.09h0s.03,0,.03,0c.06,0,.12.02.18.01.1-.01.19-.05.28-.1l3.52-.61s.09.01.14,0c.14-.02.25-.05.37-.09.22-.18.45-.44.48-.73-.54-2.05-1.33-4.02-1.98-6.02-.1-.3-.27-.67-.47-.98-.16-.29-.35-.7-.59-.91-.18-.16-.47.5-.59,1.04-.19.86-.75,2.07-.96,2.9-.29,1.13-.66,2.14-1,3.25-.18.57.18.91.01,1.48-.01.03-.02.11,0,.15.04.3.29.54.59.6Z"/>
      <path class="fd3" d="M47.19,51.7h0s-.03.02-.03.02c-.05.04-.09.08-.15.1-.09.04-.19.05-.29.05l-3.37,1.19s-.08.06-.12.07c-.13.05-.25.08-.37.1-.28-.05-.6-.17-.78-.4-.53-2.05-.81-4.15-1.22-6.22-.06-.31-.09-.72-.07-1.09,0-.33-.04-.78.07-1.08.08-.23.65.2,1.03.62.58.66,1.07,1.39,1.66,2.01.8.84,1.6,1.67,2.44,2.47.44.41.9.8,1.33,1.22.02.02.07.09.08.13.11.28,0,.62-.22.81Z"/>
      <path class="fd3" d="M53.86,46.39h0s-.03.03-.03.03c-.04.05-.07.1-.12.14-.08.06-.17.1-.26.14l-2.88,2.13s-.06.08-.09.1c-.11.09-.21.15-.32.2-.28.03-.63.02-.86-.16-1.11-1.8-1.99-3.73-2.99-5.59-.15-.28-.3-.66-.38-1.02-.1-.31-.26-.73-.25-1.06.01-.24.68,0,1.16.29.75.46,1.43,1.01,2.17,1.43,1.02.57,2.03,1.13,3.06,1.65.54.26,1.1.5,1.63.77.03.01.09.06.12.1.19.24.19.59.03.84Z"/>
      <path class="fd2" d="M16.7,42.66c1.87,2.79,4.45,5.07,7.52,6.43,4.07,1.8,8.75,2.92,12.7,2.92,3.57,0,8.47-.93,11.43-3.11,2.09-1.66,4.35-2.37,5.71-5.79.18-.52,2.22-3.98,2.39-4.41.26-.79,1.84-1.95,2.62-1.95,1.57,0,1.96,1.58,1.61,3.11-1.68,7.39-6.91,11.55-12.05,14.16-3.04,1.57-10.51,2.47-13.97,2.11-11.67-1.22-10.76-2.27-16.78-4.94-.92-.41-1.81-.92-2.59-1.56-2.25-1.81-4.3-4.01-5.76-7.19-1.14-3.02,1.21-6.46,2.88-4.82,2.75,2.7,2.89,2.94,4.3,5.05Z"/>
    </g>
  </g>
</svg>
